<svg xmlns="http://www.w3.org/2000/svg" viewBox="0 0 750 500"><g id="freepik--background-complete--inject-65"><path d="M289.18,47.78c3.32-2.36,6.91-4.23,10.65-5.6l1.46-11.06,18.38-1.68,3.45,10.61c3.93,.66,7.79,1.85,11.49,3.57l8.85-6.78,14.19,11.8-5.06,9.93c2.36,3.32,4.23,6.91,5.6,10.65l11.06,1.46,1.68,18.38-10.61,3.45c-.66,3.93-1.85,7.79-3.57,11.49l6.78,8.85-11.8,14.19-9.93-5.06c-3.32,2.36-6.91,4.23-10.65,5.6l-1.46,11.06-18.38,1.68-3.45-10.61c-3.93-.66-7.79-1.85-11.49-3.57l-8.85,6.78-14.19-11.8,5.06-9.93c-2.36-3.32-4.23-6.91-5.6-10.65l-11.06-1.46-1.68-18.38,10.61-3.45c.66-3.93,1.85-7.79,3.57-11.49l-6.78-8.85,11.8-14.19,9.94,5.06h0Zm11.62,23.79c-6.99,8.4-5.85,20.89,2.56,27.88,8.4,6.99,20.89,5.85,27.88-2.56,6.99-8.4,5.85-20.89-2.56-27.88-8.4-6.99-20.89-5.85-27.88,2.56Z" style="fill:#e0e0e0;"></path><path d="M626.7,303.55c2.46-1.75,5.12-3.13,7.89-4.15l1.08-8.19,13.61-1.25,2.55,7.86c2.91,.49,5.77,1.37,8.51,2.64l6.55-5.03,10.51,8.74-3.75,7.36c1.75,2.46,3.13,5.12,4.14,7.89l8.19,1.08,1.25,13.61-7.86,2.55c-.49,2.91-1.37,5.77-2.64,8.51l5.02,6.56-8.74,10.51-7.36-3.75c-2.46,1.75-5.12,3.13-7.89,4.14l-1.08,8.19-13.61,1.25-2.55-7.86c-2.91-.49-5.77-1.37-8.51-2.64l-6.55,5.03-10.51-8.74,3.75-7.36c-1.75-2.46-3.13-5.12-4.15-7.89l-8.19-1.08-1.25-13.61,7.86-2.55c.49-2.91,1.37-5.77,2.64-8.51l-5.02-6.55,8.74-10.51,7.36,3.75h0Zm8.61,17.62c-5.18,6.23-4.33,15.47,1.89,20.65,6.23,5.18,15.47,4.33,20.65-1.89,5.18-6.23,4.33-15.47-1.89-20.65-6.23-5.18-15.47-4.33-20.65,1.89Z" style="fill:#e0e0e0;"></path><path d="M676.6,209.4c1.34-.95,2.8-1.71,4.31-2.26l.59-4.47,7.44-.68,1.39,4.29c1.59,.27,3.15,.75,4.65,1.44l3.58-2.74,5.74,4.78-2.05,4.02c.96,1.35,1.71,2.8,2.26,4.31l4.47,.59,.68,7.44-4.29,1.4c-.27,1.59-.75,3.15-1.44,4.65l2.74,3.58-4.78,5.74-4.02-2.05c-1.34,.95-2.8,1.71-4.31,2.26l-.59,4.47-7.44,.68-1.39-4.29c-1.59-.27-3.15-.75-4.65-1.44l-3.58,2.74-5.74-4.78,2.05-4.02c-.95-1.35-1.71-2.8-2.26-4.31l-4.47-.59-.68-7.44,4.29-1.4c.27-1.59,.75-3.15,1.44-4.65l-2.74-3.58,4.78-5.74,4.02,2.05h0Zm4.7,9.62c-2.83,3.4-2.37,8.45,1.03,11.28,3.4,2.83,8.45,2.37,11.28-1.03s2.37-8.45-1.03-11.28c-3.4-2.83-8.45-2.37-11.28,1.03Z" style="fill:#ebebeb;"></path><path d="M408.42,72.68c1.9-1.35,3.95-2.42,6.1-3.2l.84-6.33,10.52-.96,1.97,6.07c2.25,.38,4.46,1.06,6.58,2.04l5.06-3.88,8.12,6.76-2.9,5.69c1.35,1.9,2.42,3.96,3.2,6.1l6.33,.84,.96,10.52-6.07,1.97c-.38,2.25-1.06,4.46-2.04,6.58l3.88,5.07-6.76,8.12-5.69-2.9c-1.9,1.35-3.96,2.42-6.1,3.2l-.84,6.33-10.52,.96-1.97-6.07c-2.25-.38-4.46-1.06-6.58-2.04l-5.06,3.88-8.12-6.76,2.9-5.69c-1.35-1.9-2.42-3.96-3.2-6.1l-6.33-.84-.96-10.52,6.07-1.97c.38-2.25,1.06-4.46,2.04-6.58l-3.88-5.07,6.76-8.12,5.69,2.9h0Zm6.65,13.62c-4,4.81-3.35,11.96,1.46,15.96,4.81,4,11.96,3.35,15.96-1.46,4-4.81,3.35-11.96-1.46-15.96-4.81-4-11.95-3.35-15.96,1.46Z" style="fill:#f5f5f5;"></path><path d="M154.5,316.39c1.9-1.35,3.95-2.42,6.1-3.2l.84-6.33,10.52-.96,1.97,6.07c2.25,.38,4.46,1.06,6.58,2.04l5.06-3.88,8.12,6.76-2.9,5.69c1.35,1.9,2.42,3.96,3.2,6.1l6.33,.84,.96,10.52-6.07,1.97c-.38,2.25-1.06,4.46-2.04,6.58l3.88,5.07-6.76,8.12-5.69-2.9c-1.9,1.35-3.96,2.42-6.1,3.2l-.84,6.33-10.52,.96-1.97-6.07c-2.25-.38-4.46-1.06-6.58-2.04l-5.06,3.88-8.12-6.76,2.9-5.69c-1.35-1.9-2.42-3.96-3.2-6.1l-6.33-.84-.96-10.52,6.07-1.97c.38-2.25,1.06-4.46,2.04-6.58l-3.88-5.07,6.76-8.12,5.69,2.9h0Zm6.65,13.62c-4,4.81-3.35,11.96,1.46,15.96,4.81,4,11.96,3.35,15.96-1.46,4-4.81,3.35-11.96-1.46-15.96-4.81-4-11.95-3.35-15.96,1.46Z" style="fill:#f5f5f5;"></path><path d="M133.33,169.22c3.18-2.26,6.62-4.05,10.2-5.36l1.4-10.59,17.61-1.61,3.3,10.16c3.76,.64,7.47,1.77,11.01,3.42l8.48-6.5,13.59,11.31-4.85,9.52c2.26,3.18,4.05,6.62,5.36,10.2l10.59,1.4,1.61,17.61-10.16,3.3c-.64,3.76-1.77,7.46-3.42,11.01l6.5,8.48-11.31,13.59-9.52-4.85c-3.18,2.26-6.62,4.05-10.2,5.36l-1.4,10.59-17.6,1.61-3.3-10.16c-3.76-.64-7.46-1.77-11.01-3.42l-8.48,6.5-13.59-11.31,4.85-9.52c-2.26-3.18-4.05-6.62-5.36-10.2l-10.59-1.4-1.61-17.61,10.16-3.3c.64-3.76,1.77-7.46,3.42-11.01l-6.5-8.48,11.31-13.59,9.52,4.85h0Zm11.13,22.79c-6.7,8.05-5.6,20.01,2.45,26.71,8.05,6.7,20.01,5.6,26.71-2.45,6.7-8.05,5.6-20.01-2.45-26.71-8.05-6.7-20.01-5.6-26.71,2.45Z" style="fill:#f5f5f5;"></path><g><g><path d="M683.88,84.84c4.68-.79,8.87-3.52,11.63-7.36,2.95-4.11,3.85-9.46,2.77-14.37-.54-2.44-4.28-1.41-3.74,1.03,.86,3.92-.01,8.12-2.38,11.38-2.21,3.04-5.64,4.96-9.31,5.58-1.03,.17-1.61,1.45-1.35,2.39,.3,1.1,1.35,1.53,2.39,1.35h0Z" style="fill:#e0e0e0;"></path><path d="M685.45,98.26c7.9-4.09,16.82-5.71,25.66-4.81,1.04,.11,1.94-.97,1.94-1.94,0-1.14-.89-1.83-1.94-1.94-9.51-.97-19.14,.95-27.62,5.34-2.22,1.15-.26,4.5,1.96,3.35h0Z" style="fill:#e0e0e0;"></path><path d="M684.47,113.28c7.77,.96,14.94,5.69,19.04,12.33,1.31,2.12,4.67,.17,3.35-1.96-4.88-7.91-13.2-13.12-22.39-14.25-1.04-.13-1.94,.98-1.94,1.94,0,1.16,.9,1.81,1.94,1.94h0Z" style="fill:#e0e0e0;"></path><path d="M649.94,79.33c-3.67-.62-7.1-2.54-9.31-5.58-2.36-3.25-3.24-7.45-2.38-11.38,.54-2.43-3.2-3.47-3.74-1.03-1.08,4.9-.18,10.25,2.77,14.37,2.76,3.84,6.95,6.57,11.63,7.36,1.03,.17,2.09-.27,2.39-1.36,.26-.93-.32-2.21-1.35-2.39h0Z" style="fill:#e0e0e0;"></path><path d="M649.3,93.15c-8.48-4.39-18.11-6.3-27.62-5.34-1.04,.11-1.94,.82-1.94,1.94,0,.97,.89,2.05,1.94,1.94,8.84-.9,17.76,.72,25.66,4.81,2.21,1.15,4.18-2.2,1.96-3.35h0Z" style="fill:#e0e0e0;"></path><path d="M648.32,108.04c-9.19,1.14-17.51,6.34-22.39,14.25-1.31,2.13,2.04,4.08,3.35,1.96,4.1-6.64,11.27-11.37,19.04-12.33,1.04-.13,1.94-.8,1.94-1.94,0-.95-.89-2.07-1.94-1.94h0Z" style="fill:#e0e0e0;"></path><path d="M652.19,73.3s-1.37-13.91,14.33-13.91,15.02,13.65,15.02,13.65l-29.35,.26Z" style="fill:#e0e0e0;"></path><path d="M651.71,54.56c.16,1.23,.45,2.33,.96,3.47,.44,.97,1.07,1.87,1.79,2.65,1.41,1.54,3.36,2.65,5.4,3.09,.99,.22,2.14-.3,2.39-1.35,.22-.98-.29-2.16-1.35-2.39-.4-.09-.8-.2-1.19-.34-.08-.03-.18-.09-.27-.11,.26,.11,.33,.14,.19,.08-.05-.02-.11-.05-.16-.07-.18-.08-.35-.17-.52-.27-.17-.1-.34-.2-.5-.31-.1-.06-.2-.13-.29-.2-.06-.04-.35-.24-.09-.06,.26,.17-.02-.02-.08-.07-.08-.06-.15-.13-.22-.19-.16-.15-.31-.3-.46-.45-.14-.15-.27-.3-.4-.45-.27-.31,.18,.26,.04,.06-.06-.08-.12-.16-.17-.25-.24-.35-.45-.72-.63-1.1-.03-.06-.07-.23-.13-.27,.11,.26,.13,.32,.08,.19-.02-.06-.04-.11-.07-.17-.07-.19-.14-.38-.19-.57-.06-.19-.11-.39-.15-.58-.03-.12-.05-.24-.07-.35-.02-.14-.08-.54,0,.04-.07-.53-.17-.97-.57-1.37-.34-.34-.89-.59-1.37-.57-.5,.02-1.02,.19-1.37,.57-.32,.35-.63,.88-.57,1.37h0Z" style="fill:#e0e0e0;"></path><path d="M676.9,54.56c.08-.64-.03,.1-.06,.26-.04,.2-.09,.39-.15,.58-.06,.21-.13,.42-.21,.63-.03,.07-.14,.41-.04,.1,.1-.3-.02,.03-.05,.1-.18,.38-.39,.75-.63,1.1-.06,.08-.12,.16-.17,.25-.19,.29,.2-.24,.05-.06-.14,.17-.28,.34-.43,.5-.13,.14-.27,.28-.42,.41-.11,.1-.39,.26-.45,.38,.22-.17,.28-.21,.16-.12-.05,.04-.09,.07-.14,.1-.08,.06-.16,.11-.24,.17-.16,.11-.33,.21-.5,.31-.19,.11-.38,.21-.58,.3-.07,.03-.39,.16-.09,.05,.31-.11-.03,0-.1,.03-.41,.15-.82,.27-1.24,.36-.99,.22-1.67,1.43-1.35,2.39,.34,1.05,1.32,1.59,2.39,1.35,2.04-.44,3.99-1.55,5.4-3.09,.71-.77,1.33-1.65,1.76-2.6,.53-1.15,.83-2.27,.99-3.52,.06-.46-.26-1.06-.57-1.37-.34-.34-.89-.59-1.37-.57-.5,.02-1.02,.19-1.37,.57-.37,.41-.5,.83-.57,1.37h0Z" style="fill:#e0e0e0;"></path></g><g><path d="M664.54,78.26c0-.56,.15-1.03,.37-1.42l-13.23-.25s-13.24,10.63-10.28,31.19c2.68,18.61,12.73,24.79,23.14,24.63v-54.15Z" style="fill:#e0e0e0;"></path><path d="M683.05,76.6l-13.23,.25c.23,.39,.37,.85,.37,1.41v54.15c10.41,.16,20.46-6.02,23.14-24.63,2.96-20.56-10.28-31.19-10.28-31.19Z" style="fill:#e0e0e0;"></path></g></g></g><g id="freepik--Floor--inject-65"><path d="M705.79,461.09c0,.14-148.11,.26-330.78,.26s-330.81-.12-330.81-.26,148.08-.26,330.81-.26,330.78,.12,330.78,.26Z"></path></g><g id="freepik--Icon--inject-65"><g><rect x="95.88" y="56.7" width="85.7" height="56.66" rx="8.38" ry="8.38" style="fill:#060606;"></rect><g style="opacity:.3;"><rect x="95.88" y="56.7" width="85.7" height="56.66" rx="8.38" ry="8.38"></rect></g><rect x="95.95" y="50.86" width="85.7" height="56.66" rx="8.38" ry="8.38" style="fill:#060606;"></rect><g><path d="M129.55,76.01l-11.68,4.14,11.68,4.14v5.35l-18.05-6.66v-5.64l18.05-6.66v5.35Z" style="fill:#fff;"></path><path d="M142.4,62.14h6.19l-12.08,34.49h-6.19l12.08-34.49Z" style="fill:#fff;"></path><path d="M167.04,77.33v5.64l-18.05,6.66v-5.35l11.68-4.14-11.68-4.14v-5.35l18.05,6.66Z" style="fill:#fff;"></path></g></g></g><g id="freepik--Device--inject-65"><g><g><g><path d="M173.13,387.88c-.39-.16-.79-.32-1.18-.49-.14-.06-1.45-.61-.38-.15-.66-.28-1.31-.56-1.96-.84-1.44-.63-2.87-1.27-4.29-1.93-2.84-1.32-5.65-2.72-8.41-4.21-2.75-1.49-5.45-3.07-8.08-4.76-1.19-.77-2.37-1.55-3.53-2.37-.7-.49-1.39-.98-2.07-1.49-.23-.17-.45-.34-.68-.51-.23-.17-.45-.34-.68-.51,.45,.35,.45,.35,0,0-4.71-3.74-9.09-7.87-12.88-12.55-.26-.32-.51-.64-.77-.97,.73,.93-.12-.16-.22-.3-.41-.55-.81-1.11-1.2-1.67-.86-1.24-1.69-2.5-2.47-3.79-1.56-2.57-2.94-5.25-4.12-8.01,.47,1.11-.3-.77-.41-1.08-.27-.7-.52-1.4-.75-2.11-.5-1.48-.93-2.97-1.31-4.48-.32-1.31-.6-2.63-.82-3.97-.07-.4-.15-.8-.18-1.2,.12,1.3,0-.06-.02-.28-.09-.81-.16-1.61-.2-2.42-.17-2.86-.05-5.71,.27-8.56,.09-.79-.21,1.24,0,0,.07-.38,.12-.75,.19-1.13,.11-.62,.24-1.25,.38-1.87,.31-1.36,.67-2.71,1.1-4.04,.23-.73,.48-1.45,.75-2.16,.09-.24,.18-.48,.27-.71,.08-.21,.54-1.42,.07-.22,.5-1.3,1.16-2.55,1.81-3.78,.66-1.23,1.37-2.44,2.13-3.61,.35-.53,.7-1.06,1.07-1.58,.18-.26,.37-.52,.56-.77,.77-1.04-.37,.43,.26-.35,1.76-2.17,3.65-4.22,5.75-6.08,.48-.42,.96-.83,1.45-1.23,.23-.19,.95-1.03,.19-.16,.14-.16,.43-.32,.61-.46,1.27-.93,2.59-1.79,3.95-2.59,1.41-.82,2.86-1.52,4.33-2.22,1.19-.56-.65,.25,.11-.06,.44-.18,.88-.35,1.32-.52,.76-.29,1.53-.55,2.3-.8,1.55-.49,3.12-.91,4.71-1.25,.86-.18,1.73-.34,2.6-.48,.29-.05,1.22-.23,.08-.02,.53-.1,1.08-.13,1.62-.18,3.23-.3,6.5-.27,9.73,.08,.22,.02,1.57,.1,.28,.03,.4,.02,.81,.12,1.2,.19,.8,.14,1.6,.3,2.39,.47,1.72,.39,3.41,.88,5.07,1.46,2.47,.86,5.58-.98,6.15-3.49,.63-2.79-.84-5.23-3.49-6.15-12.74-4.43-26.86-3.4-39.1,2.07-11.3,5.05-20.61,14.74-25.55,26.05-5.3,12.12-5.98,25.47-1.97,38.11,4.01,12.65,11.88,23.86,21.79,32.6,11.59,10.22,25.36,17.26,39.58,23.08,2.43,.99,5.6-1.07,6.15-3.49,.66-2.91-.89-5.09-3.49-6.15h0Z" style="fill:#e0e0e0;"></path><path d="M173.13,387.88s.35,.11,.98,.45c.6,.36,1.55,.97,2.21,2.22,.33,.62,.53,1.4,.52,2.27,0,.86-.2,1.84-.8,2.68-.58,.85-1.46,1.59-2.57,2.03-.55,.21-1.16,.35-1.8,.33-.64,0-1.28-.26-1.87-.51-4.87-2-10.8-4.55-17.41-8.07-6.6-3.52-13.9-8.04-21.05-14.21-7.12-6.16-13.97-14.19-18.85-24.19-2.42-4.99-4.36-10.46-5.39-16.3-1.01-5.83-1.08-12.02-.04-18.18,1.05-6.16,3.17-12.31,6.47-17.97,3.3-5.65,7.73-10.82,13.11-14.99,2.69-2.08,5.62-3.91,8.74-5.42,3.12-1.49,6.41-2.69,9.81-3.59,6.79-1.78,14.04-2.34,21.2-1.31,2.91,.39,5.76,1.08,8.52,1.97,.68,.22,1.41,.42,2.06,.82,.65,.38,1.23,.89,1.67,1.5,.91,1.22,1.18,2.84,.87,4.29-.29,1.51-1.41,2.73-2.71,3.41-.66,.34-1.38,.57-2.13,.61-.74,.07-1.54-.14-2.17-.38-1.33-.45-2.67-.84-4.03-1.16-1.36-.29-2.74-.58-4.07-.78l.03-.51,.4,.02h.1s.04,0,.02,0h-.03c-.12-.31-.23,.66-.02,.51h-.2c-.26-.02-.55-.04-.81-.07-.53-.06-1.06-.1-1.59-.14-1.06-.07-2.12-.12-3.18-.12-2.11-.01-4.23,.12-6.27,.38l-.09-.5,.38-.07,.1-.02h.07s-.07-.03,.12,0c.18,.87-.07,.31,0,.48h-.05l-.2,.05-.77,.14-1.51,.28c-1.01,.15-1.98,.49-2.96,.72-.97,.27-1.97,.48-2.92,.81-.95,.33-1.9,.65-2.83,1.03l-.35,.14-.09,.04-.05,.02h-.03s-.07,.05-.2-.02c-.15-.11-.11-.28-.1-.29,.04-.1,.07-.1,.12-.14l.2-.1,.18-.08,.09-.04h.03l.04-.02s.33,0,.31,.28c-.03,.13-.05,.12-.06,.13-.05,.05-.11,.08-.11,.08l-.35,.17-1.33,.68c-.88,.45-1.77,.9-2.65,1.35-.87,.46-1.66,1.06-2.49,1.57l-1.23,.8-.61,.4c-.21,.15-.43,.27-.54,.4l-.37-.32,.26-.29,.07-.07,.02-.02h0c-.36-.25,.51,.29,.36,.32h-.01l-.03,.05-.13,.15c-.16,.19-.4,.4-.59,.55l-1.17,.99c-.77,.67-1.5,1.37-2.21,2.09-.71,.72-1.4,1.46-2.06,2.21l-.98,1.14-.48,.58-.24,.29-.04,.05-.03,.03c0,.12-.62-.6-.35-.31l.02-.03,.02-.02,.06-.08,.12-.16,.03-.03s-.05,.02,.09-.06c.11-.02,.26-.06,.32,.23-.05,.21-.02,.07-.03,.12h0l-.03,.06-.06,.08-.11,.15-.22,.3-.43,.6-.83,1.22c-.54,.82-1.01,1.68-1.52,2.52-1.02,1.66-1.92,3.39-2.63,5.15l-.43-.17,.15-.39,.04-.1v-.03l.02-.03h0c.15,.06-.33-.17,.42,.03,.01,.23-.01,.12,0,.15h0v.05l-.09,.2-.3,.77c-.2,.51-.37,1.03-.55,1.54-.39,1.02-.63,2.07-.92,3.11-.28,1.04-.58,2.06-.77,3.11-.11,.52-.2,1.04-.29,1.56l-.07,.39-.04,.2v.05l-.02,.03-.02,.05c-.18,.28-.52-.03-.41,0-.02-.04-.02-.12-.02-.11v-.12l.07-.4,.02-.11v-.03c-.06,.19,.03-.37,.44,.04,0,.02,0,.05,0,.06v.09l-.03,.2c-.23,2.08-.35,4.15-.34,6.19,.01,1.02,.04,2.03,.14,3.04,.04,.5,.08,1,.13,1.5l.07,.75v.17h.01s0,.02,0,.08c.03,.22-.57,.11-.39,.06-.04-.09-.02-.11-.03-.12v-.14l-.05-.37,.42-.04c.15,1.19,.43,2.36,.66,3.53,.12,.58,.23,1.17,.37,1.74,.16,.57,.33,1.13,.49,1.69,.34,1.12,.61,2.25,1.01,3.32,.19,.54,.39,1.07,.58,1.61l.32,.79,.16,.4v.03l.02,.02h0c.07-.12-.01,.36-.28,.24-.08-.05-.05-.04-.07-.07-.04-.07-.03-.05-.04-.08l-.04-.1-.08-.2,.36-.16c1.17,2.76,2.51,5.34,3.95,7.75,.76,1.18,1.51,2.34,2.25,3.48,.36,.58,.77,1.11,1.15,1.66,.2,.27,.38,.54,.59,.81l.3,.4h.01v.03c-.51,.48-.17,.1-.27,.22h0l-.02-.04-.04-.05-.08-.1-.15-.2,.28-.22c2.3,2.96,4.71,5.56,7.12,7.87,1.2,1.16,2.41,2.24,3.6,3.27,.6,.51,1.2,1,1.78,1.5,.3,.24,.59,.48,.88,.72l.44,.35,.06,.04,.03,.02h.02c.02-.14,.1,.3-.11,.27-.04,0-.03,0-.04-.01l-.03-.02-.11-.09-.22-.17,.18-.23c3.67,2.79,7.18,5.1,10.45,6.96,1.62,.96,3.14,1.86,4.57,2.7,1.48,.75,2.86,1.45,4.14,2.09,2.56,1.3,4.7,2.4,6.48,3.16,1.76,.81,3.09,1.39,3.97,1.78l-.03,.06c-.12-.05-.23-.1-.34-.14l-.08-.04c.07-.1,.06,0,.1-.02l.15,.06c.19,.08,.37,.16,.53,.22,.31,.13,.55,.23,.73,.31,.36,.15,.49,.22,.49,.22,0,0-.13-.04-.5-.19l-.74-.3-.53-.22-.15-.06s-.08,.03-.05-.08l.08,.03,.34,.14-.03,.06c-.89-.37-2.23-.93-4-1.73-1.79-.75-3.94-1.83-6.51-3.11-1.29-.64-2.67-1.33-4.16-2.07-1.44-.84-2.97-1.73-4.59-2.69-3.28-1.85-6.82-4.14-10.5-6.93l.18-.23,.22,.17,.11,.08s0,0-.02-.01c-.02,.02-.02,.06-.04-.01-.21-.03-.13,.41-.12,.26h-.01l-.03-.03-.06-.04-.44-.35c-.29-.24-.59-.48-.89-.72-.59-.49-1.19-.99-1.79-1.49-1.2-1.03-2.41-2.11-3.62-3.27-2.43-2.31-4.85-4.92-7.18-7.88l.28-.22,.15,.19,.08,.1,.04,.05,.02,.02h0c-.07,.05-.08,.09-.19,.16l-.09,.06h0l-.3-.4c-.21-.26-.4-.54-.6-.81-.39-.55-.8-1.09-1.17-1.67-.74-1.15-1.5-2.31-2.27-3.5-1.45-2.42-2.81-5.01-3.99-7.78l.36-.16,.08,.19,.04,.09s.06,.03-.03,.04c-.05,0-.14,.11-.12,.08-.03-.05-.09,.05-.1,.04-.05,.01-.12,.04-.1,.03h0v-.03l-.16-.39-.32-.79c-.2-.54-.39-1.08-.59-1.62-.41-1.08-.67-2.22-1.02-3.34-.17-.57-.33-1.13-.5-1.7-.14-.58-.25-1.17-.37-1.75-.24-1.18-.52-2.35-.68-3.58l.42-.04,.03,.37v.14s.03,.05,0-.04c.17-.06-.43-.17-.4,.05,0,.06,0,.06,0,.06h0v-.17l-.08-.74c-.04-.5-.09-1.01-.13-1.51-.1-1.01-.13-2.04-.15-3.06-.02-2.06,.1-4.15,.33-6.25l.02-.19v-.06s.15,.02,.21,0c.05,0,.15,.06,.22,.06,.02,.02,0,.05,0,.08l-.06,.38v.07h0s0,0-.08,0c-.13-.03-.11,.01-.18-.01l-.15-.05s-.01,0-.02,0h0v-.06l.04-.19,.07-.39c.08-.52,.18-1.05,.29-1.57,.18-1.06,.49-2.09,.77-3.14,.29-1.04,.54-2.11,.93-3.14,.18-.52,.35-1.04,.55-1.56l.29-.77,.07-.19v-.02h.01v-.02s-.01-.09,0,.14c.86,.26,.04-.18,.3-.03,.25,.14,.07,.04,.13,.07h0v.02l-.05,.09-.15,.39-.43-.17c.73-1.81,1.63-3.53,2.65-5.21,.51-.84,.98-1.71,1.53-2.54l.84-1.24,.44-.61,.22-.3,.11-.15,.05-.07,.02-.03c-.06-.02,.14,.07,.17,.11,.05,.01,.02-.01,.05,.03,.02,0,.07,.06,.11,.09,.05,.05,.05,.04,.05,.04h0l-.11,.14-.05,.07h0v.02s-.07-.06-.11-.08c-.11-.04-.12-.12-.22-.18-.09-.08-.01-.03-.02-.06l.23-.29,.48-.58,.98-1.15c.67-.76,1.36-1.51,2.08-2.23,.72-.73,1.46-1.43,2.24-2.11l1.18-1c.21-.17,.36-.31,.54-.51l.13-.14,.03-.03h0c-.02,.14,.52,.36,.37,.32h0v.02l-.08,.07-.26,.29-.37-.32c.22-.23,.44-.34,.63-.48l.61-.4,1.24-.81c.84-.53,1.64-1.12,2.51-1.59,.89-.45,1.77-.91,2.67-1.37l1.34-.69,.33-.16s.03-.01,0,0l-.02,.02s-.03-.02,.02,.03c.04,.04,.08,.09,.13,.13,.06,.05-.04-.04-.07,.01-.07,.12,.13,.22,.13,.22,.07,.06,.01,.02,.03,.03h-.02l-.08,.04-.17,.07-.14,.07s.06,0,.01-.07c-.03-.04-.07-.07-.11-.1-.07-.05-.04-.02,.02-.01,.04,.02,.13-.06,.04-.19-.08-.11-.14-.09-.16-.08-.03,0,0,0,0,0h.04l.08-.05,.35-.14c.93-.39,1.9-.7,2.85-1.04,.96-.33,1.96-.54,2.95-.82,1-.24,1.97-.58,2.99-.73l1.52-.28,.75-.14,.18-.04h0s-.02-.03,.04,.13c.13,.35-.1-.36-.02,.29,.14,.14,.07,.04,.09,.07h-.06l-.09,.03-.38,.07-.09-.5c2.12-.27,4.23-.4,6.37-.39,1.07,0,2.14,.05,3.21,.12,.54,.04,1.07,.08,1.61,.14,.27,.03,.52,.05,.79,.06h.24l.05,.02c.21-.15,.1,.82-.02,.5h-.2l-.4-.03,.03-.51c1.42,.2,2.78,.49,4.16,.79,1.37,.33,2.73,.72,4.07,1.17,2.5,1.16,5.77-.61,6.33-3.26,.29-1.33,.03-2.78-.78-3.88-.4-.55-.93-1.01-1.52-1.36-.58-.36-1.26-.56-1.95-.78-2.73-.89-5.55-1.57-8.43-1.95-7.08-1.02-14.26-.47-20.99,1.29-6.73,1.77-13.05,4.75-18.37,8.91-5.33,4.14-9.72,9.25-12.99,14.84-3.27,5.6-5.38,11.7-6.42,17.8-1.04,6.11-.98,12.24,.02,18.02,1.01,5.79,2.93,11.22,5.32,16.19,4.83,9.95,11.63,17.95,18.7,24.1,7.1,6.17,14.37,10.7,20.94,14.24,6.58,3.54,12.5,6.11,17.35,8.14,.61,.27,1.19,.5,1.8,.51,.61,.02,1.19-.1,1.73-.3,1.07-.42,1.94-1.14,2.51-1.95,.59-.81,.79-1.76,.8-2.6,.02-.84-.17-1.61-.48-2.22-.63-1.23-1.55-1.86-2.14-2.22-.31-.18-.54-.3-.71-.38-.16-.08-.24-.12-.24-.12Z" style="fill:#263238;"></path></g><path d="M138.77,288.03c-.16,.03-.38-2.41-2.03-4.81-1.61-2.43-3.79-3.54-3.7-3.68,.03-.05,.61,.14,1.43,.68,.82,.53,1.86,1.46,2.7,2.71,.84,1.25,1.31,2.56,1.5,3.52,.19,.97,.16,1.58,.1,1.58Z" style="fill:#263238;"></path><path d="M127.81,296.2c-.15,.08-1.02-2.21-3.26-4.08-2.21-1.9-4.61-2.38-4.56-2.54,.01-.06,.62-.03,1.56,.27,.94,.29,2.18,.9,3.34,1.87,1.15,.98,1.96,2.11,2.4,2.98,.45,.88,.58,1.47,.52,1.49Z" style="fill:#263238;"></path><path d="M120.66,306.6c-.12,.11-1.56-1.87-4.21-3.08-2.63-1.26-5.07-1.09-5.07-1.26,0-.06,.59-.19,1.58-.15,.98,.04,2.34,.3,3.71,.93,1.37,.64,2.44,1.52,3.09,2.25,.66,.73,.94,1.27,.89,1.31Z" style="fill:#263238;"></path><path d="M116.96,319.06c-.1,.13-1.88-1.55-4.71-2.26-2.81-.75-5.19-.14-5.21-.3-.02-.06,.55-.3,1.52-.44,.97-.14,2.36-.14,3.82,.23,1.46,.38,2.68,1.05,3.46,1.64,.78,.59,1.16,1.08,1.12,1.12Z" style="fill:#263238;"></path><path d="M116.9,331.23c-.02,.16-2.41-.35-5.19,.51-2.8,.82-4.51,2.58-4.61,2.45-.04-.04,.31-.54,1.07-1.16,.75-.63,1.94-1.34,3.39-1.78,1.45-.43,2.83-.5,3.81-.39,.98,.1,1.55,.32,1.54,.37Z" style="fill:#263238;"></path><path d="M120.64,344.02c0,.17-2.44,.02-5.05,1.3-2.64,1.23-4.06,3.23-4.18,3.12-.05-.03,.23-.58,.88-1.31,.65-.73,1.71-1.62,3.08-2.28,1.36-.65,2.72-.92,3.7-.96,.98-.05,1.58,.08,1.58,.14Z" style="fill:#263238;"></path><path d="M127.37,355.61c.06,.15-2.3,.82-4.35,2.88-2.09,2.03-2.78,4.38-2.93,4.32-.06-.02,.03-.62,.4-1.53,.37-.91,1.09-2.09,2.16-3.16,1.08-1.06,2.27-1.76,3.18-2.13,.91-.37,1.52-.45,1.53-.39Z" style="fill:#263238;"></path><path d="M137.25,366.16c.06,.15-2.3,.82-4.35,2.88-2.09,2.03-2.78,4.38-2.93,4.32-.06-.02,.03-.62,.4-1.53,.37-.91,1.09-2.09,2.16-3.16,1.08-1.06,2.27-1.76,3.18-2.13,.91-.37,1.52-.45,1.53-.39Z" style="fill:#263238;"></path><path d="M149.48,376.13c.06,.15-2.3,.82-4.35,2.88-2.09,2.03-2.78,4.38-2.93,4.32-.06-.02,.03-.62,.4-1.53,.37-.91,1.09-2.09,2.16-3.16,1.07-1.06,2.27-1.76,3.18-2.13,.91-.37,1.52-.45,1.53-.39Z" style="fill:#263238;"></path><path d="M161.4,382.94c.09,.14-2.12,1.2-3.8,3.58-1.71,2.36-2,4.79-2.16,4.75-.06,0-.08-.62,.14-1.58,.21-.96,.72-2.25,1.59-3.48,.88-1.23,1.94-2.12,2.77-2.63,.84-.52,1.42-.7,1.45-.64Z" style="fill:#263238;"></path><path d="M151.69,283.23c-.17,0,.11-2.43-1.02-5.12-1.09-2.7-3.01-4.23-2.89-4.35,.04-.05,.57,.26,1.26,.95,.7,.69,1.53,1.8,2.11,3.19,.57,1.4,.77,2.77,.76,3.75,0,.98-.16,1.58-.22,1.57Z" style="fill:#263238;"></path></g><g><g><path d="M468.66,137.15c.15-.45,.3-.89,.46-1.34,.05-.16,.57-1.65,.14-.43,.26-.74,.53-1.48,.79-2.23,.59-1.63,1.2-3.25,1.83-4.87,1.26-3.23,2.61-6.43,4.07-9.58,1.45-3.14,3.01-6.23,4.7-9.25,.76-1.37,1.55-2.72,2.37-4.06,.49-.8,.99-1.6,1.5-2.39,.17-.26,.34-.53,.51-.79s.34-.52,.52-.78c-.36,.52-.36,.53,0,0,3.8-5.46,8.07-10.59,12.98-15.09,.34-.31,.67-.61,1.01-.91-.98,.87,.17-.14,.31-.26,.58-.49,1.17-.97,1.76-1.44,1.31-1.04,2.65-2.04,4.02-2.99,2.73-1.9,5.59-3.61,8.57-5.1-1.19,.6,.84-.38,1.16-.53,.75-.34,1.51-.67,2.28-.98,1.6-.65,3.22-1.24,4.86-1.75,1.43-.45,2.87-.84,4.32-1.18,.43-.1,.87-.22,1.31-.29-1.43,.22,.07,0,.3-.04,.88-.15,1.77-.28,2.66-.39,3.15-.38,6.3-.46,9.47-.3,.88,.04-1.39-.15,0,0,.42,.05,.84,.08,1.26,.13,.7,.08,1.39,.18,2.09,.29,1.53,.24,3.04,.55,4.54,.93,.82,.21,1.63,.43,2.44,.68,.27,.08,.54,.17,.8,.25,.23,.07,1.61,.5,.24,.07,1.47,.47,2.9,1.1,4.3,1.74,1.41,.64,2.79,1.34,4.13,2.11,.61,.35,1.22,.7,1.82,1.07,.3,.18,.6,.37,.89,.56,1.21,.78-.5-.38,.41,.26,2.52,1.8,4.92,3.74,7.11,5.94,.5,.5,.98,1,1.46,1.52,.23,.25,1.2,.98,.19,.19,.19,.15,.38,.45,.55,.64,1.12,1.34,2.16,2.74,3.13,4.19,1,1.5,1.88,3.06,2.75,4.63,.7,1.27-.32-.7,.07,.12,.22,.47,.45,.95,.67,1.42,.37,.82,.72,1.65,1.04,2.48,.65,1.67,1.22,3.38,1.7,5.11,.26,.94,.5,1.88,.7,2.84,.07,.32,.34,1.33,.03,.09,.15,.58,.21,1.19,.31,1.77,.55,3.55,.75,7.16,.58,10.75-.01,.25,0,1.74,0,.31,0,.44-.08,.9-.13,1.34-.1,.89-.22,1.78-.36,2.67-.31,1.92-.74,3.82-1.26,5.7-.78,2.79,1.47,6.09,4.28,6.55,3.12,.51,5.72-1.29,6.55-4.28,4.01-14.38,1.9-29.91-4.99-43.05-6.36-12.13-17.71-21.74-30.54-26.43-13.75-5.02-28.55-4.84-42.23,.45-13.69,5.3-25.53,14.78-34.5,26.32-10.49,13.51-17.31,29.2-22.75,45.31-.93,2.75,1.57,6.11,4.28,6.55,3.26,.53,5.56-1.34,6.55-4.28h0Z" style="fill:#e0e0e0;"></path><path d="M468.66,137.15s-.1,.39-.43,1.11c-.35,.69-.96,1.77-2.3,2.59-.66,.41-1.51,.68-2.47,.73-.95,.05-2.04-.1-3.02-.7-.97-.58-1.86-1.51-2.42-2.69-.27-.59-.46-1.26-.48-1.96-.04-.71,.19-1.42,.44-2.1,1.88-5.52,4.29-12.24,7.72-19.79,3.43-7.53,7.92-15.91,14.25-24.22,6.31-8.28,14.71-16.4,25.42-22.48,5.35-3.01,11.25-5.54,17.62-7.07,6.37-1.52,13.19-2.02,20.07-1.3,6.87,.73,13.81,2.65,20.29,5.9,6.47,3.25,12.47,7.79,17.46,13.44,2.48,2.83,4.71,5.93,6.58,9.28,1.86,3.35,3.42,6.89,4.64,10.58,2.44,7.37,3.55,15.34,2.91,23.31-.23,3.24-.79,6.43-1.59,9.54-.19,.77-.37,1.58-.76,2.32-.38,.74-.89,1.41-1.53,1.94-1.28,1.08-3.04,1.5-4.66,1.25-1.68-.22-3.09-1.36-3.93-2.74-.42-.7-.72-1.48-.82-2.3-.06-.41-.05-.82,0-1.24,.06-.42,.17-.81,.27-1.17,.4-1.5,.74-3.01,1.01-4.53,.23-1.52,.46-3.06,.58-4.55h.51v.55s0,.05,0,.03v-.03c.31-.13-.67-.19-.51,0v.03h0v-.26c0-.29,0-.61,.02-.9,.03-.59,.04-1.18,.05-1.77,0-1.18-.02-2.35-.09-3.52-.13-2.33-.43-4.67-.85-6.91l.49-.12,.1,.42,.03,.11v.06l.02,.02h0s.01-.06,0,.13c-.86,.23-.32-.05-.48,.04v-.02l-.02-.03-.06-.21-.21-.84-.41-1.65-.2-.82-.27-.8-.53-1.6c-.37-1.06-.67-2.14-1.1-3.17-.43-1.03-.84-2.06-1.33-3.06l-.18-.38-.05-.1-.02-.06-.02-.06c0-.42,.61-.26,.4-.26,.02,.01,.06,.06,.06,.06v.02l.12,.2,.1,.19,.05,.1v.03l.02,.02v.03c.25-.27-.28,.43-.39,.27-.07-.07-.06-.07-.07-.08l-.02-.03-.21-.37-.84-1.42c-.56-.95-1.12-1.89-1.68-2.83-.57-.93-1.28-1.76-1.91-2.64l-.97-1.3-.49-.65c-.18-.22-.33-.45-.48-.58l.3-.39,.34,.26,.09,.07,.02,.02h0c-.58,.79-.18,.21-.31,.39h-.01l-.04-.04-.17-.14c-.22-.17-.46-.41-.65-.61l-1.18-1.22c-.79-.8-1.62-1.57-2.46-2.3-.84-.74-1.71-1.44-2.58-2.12l-1.33-1-.67-.49-.34-.25-.05-.04-.03-.03c-.08,.06,.53-.7,.29-.37l.03,.02,.03,.02,.09,.06,.18,.13,.03,.03s-.04-.05,.05,.06c.04,.12,.11,.22-.15,.35-.27,0-.12-.02-.17-.02h-.01l-.06-.04-.09-.06-.18-.11-.35-.22-.7-.44-1.41-.83c-.94-.54-1.93-1-2.89-1.5-1.9-1.01-3.88-1.89-5.87-2.55l.14-.44,.44,.14,.11,.04h.03l.03,.02h.01c-.06,.15,.14-.33-.02,.43-.24,.03-.12,0-.16,0h-.02l-.03-.02-.22-.07-.87-.27c-.58-.19-1.16-.34-1.74-.5-1.15-.36-2.33-.56-3.5-.81-1.17-.24-2.32-.5-3.49-.63-.58-.09-1.16-.15-1.75-.21l-.44-.05-.22-.03h-.06l-.04-.02h-.05c-.29-.18,0-.53-.03-.42,.04-.02,.12-.03,.1-.03h.13l.45,.04,.13,.02h.03c-.19-.05,.37,0-.01,.44-.02,0-.05,0-.06,0h-.32c-2.32-.13-4.61-.12-6.87,.04-1.13,.09-2.24,.18-3.35,.37-.55,.08-1.1,.16-1.65,.24l-.83,.13-.1,.02h-.09s0,.02-.07,.01c-.22,.04-.15-.56-.09-.39,.09-.04,.11-.03,.12-.04h.05l.1-.02,.41-.06,.06,.42c-1.3,.25-2.58,.64-3.86,.98-.63,.18-1.27,.33-1.9,.53-.61,.22-1.23,.44-1.84,.66-1.21,.46-2.44,.83-3.6,1.35-.58,.25-1.16,.5-1.74,.75l-.85,.4-.43,.2h-.03l-.02,.02h0c.13,.06-.35,0-.25-.27,.05-.08,.04-.05,.06-.08,.07-.04,.05-.03,.08-.05l.11-.05,.21-.11,.18,.35c-2.96,1.49-5.72,3.14-8.29,4.9-1.25,.92-2.48,1.83-3.69,2.72-.61,.44-1.18,.93-1.75,1.39-.29,.24-.57,.46-.85,.71l-.42,.36h-.02v.02c-.52-.49-.13-.17-.25-.27h0l.03-.03,.05-.05,.1-.09,.21-.18,.24,.27c-3.11,2.75-5.81,5.59-8.2,8.41-1.19,1.41-2.31,2.82-3.36,4.2-.52,.7-1.03,1.39-1.53,2.07-.24,.34-.49,.69-.73,1.03l-.36,.51-.04,.06-.02,.03v.02c.14,0-.29,.11-.28-.09,0-.04,0-.03,.01-.05l.02-.03,.09-.13,.17-.26,.24,.16c-2.83,4.25-5.13,8.29-6.96,12.03-.95,1.85-1.84,3.6-2.67,5.24-.72,1.69-1.4,3.26-2.02,4.72-1.26,2.91-2.32,5.36-3.04,7.38-.78,2-1.32,3.51-1.69,4.51l-.06-.02c.05-.13,.09-.26,.14-.38l.03-.09c.11,.06,.01,.07,.03,.1l-.06,.17-.21,.6c-.12,.35-.22,.62-.29,.83-.15,.41-.2,.55-.2,.55,0,0,.04-.15,.17-.56,.07-.21,.16-.48,.28-.84l.2-.6,.06-.17s-.03-.09,.08-.06l-.03,.09-.13,.38-.06-.02c.34-1.01,.88-2.53,1.63-4.54,.71-2.02,1.75-4.48,2.99-7.41,.62-1.46,1.28-3.04,2-4.74,.83-1.64,1.71-3.4,2.65-5.26,1.82-3.75,4.1-7.81,6.93-12.08l.24,.16-.17,.26-.09,.13s0,0,0-.02c-.03-.02-.03-.01,.01-.04,.02-.21-.42-.11-.26-.1h0l.02-.05,.04-.06,.36-.51c.24-.34,.48-.69,.73-1.03,.5-.68,1.01-1.38,1.53-2.08,1.05-1.4,2.17-2.81,3.36-4.23,2.38-2.84,5.09-5.7,8.21-8.47l.24,.27-.2,.18-.1,.09-.05,.05-.02,.02h0s-.1-.08-.17-.18c-.09-.12-.06-.08-.06-.09h.01l.41-.37c.28-.25,.57-.48,.85-.71,.58-.47,1.14-.96,1.76-1.4,1.21-.9,2.45-1.82,3.7-2.75,2.57-1.77,5.34-3.44,8.32-4.94l.18,.35-.21,.11-.1,.05s-.04,.05-.03,0c0-.05-.13-.14-.09-.13,.06-.03-.07-.09-.05-.11-.02-.07-.04-.11-.03-.09h.03l.42-.21,.85-.41c.58-.25,1.16-.51,1.75-.76,1.17-.52,2.41-.9,3.62-1.36,.61-.22,1.23-.44,1.85-.67,.63-.2,1.27-.35,1.91-.53,1.28-.34,2.56-.73,3.9-.99l.06,.42-.41,.06-.1,.02h-.05s-.05,.03,.03-.01c.07,.17,.14-.43-.07-.39-.06,0-.06,0-.06,0h.09l.1-.03,.82-.13c.55-.08,1.11-.16,1.66-.25,1.11-.18,2.24-.29,3.37-.37,2.27-.17,4.59-.18,6.92-.07h.28s-.01,.14,.01,.21c0,.05-.06,.18-.05,.24h-.09l-.43-.05s-.08,.06-.09-.06c.03-.14-.02-.13,0-.2l.04-.17s0,0,0,0h.07l.21,.04,.44,.05c.58,.06,1.17,.12,1.76,.21,1.18,.13,2.34,.39,3.52,.63,1.17,.25,2.37,.45,3.53,.81,.58,.17,1.18,.31,1.76,.5l.87,.27,.22,.07h.04s.09,0-.14,.02c-.21,.88,.18,.04,.05,.31-.11,.24-.03,.07-.06,.12h-.02l-.11-.04-.44-.14,.14-.44c2.04,.68,4.01,1.55,5.94,2.57,.96,.5,1.96,.97,2.91,1.51l1.42,.84,.7,.44,.35,.22,.17,.11,.08,.05,.03,.02c.02-.06-.05,.14-.11,.19,0,.05,0,.01-.03,.05,0,.03-.07,.08-.1,.13-.04,.06-.02,.01-.03,.02l-.16-.11-.08-.05h-.02s-.01,.02,.07-.13c.03-.13,.13-.14,.19-.25,.03-.04,.03,0,.05,0l.33,.24,.68,.49,1.34,1.01c.89,.68,1.76,1.4,2.61,2.14,.85,.74,1.68,1.51,2.49,2.32l1.19,1.23c.2,.22,.37,.38,.6,.56l.16,.13,.04,.03h0s.04-.03-.3,.39h0l-.02-.02-.08-.07-.34-.26,.3-.39c.27,.22,.4,.46,.56,.66l.49,.65,.98,1.31c.64,.89,1.35,1.73,1.93,2.67l1.69,2.85,.85,1.43,.2,.35v.02h.01s-.15,.08-.19,.14c-.01,.03-.16,.04-.23,.09-.04,.02-.01,0-.02,0v-.02l-.05-.09-.09-.18-.09-.17c-.08,.04,.21-.13,.23-.15,.28-.07,.2-.08,.21-.06l.02,.04,.04,.09,.18,.38c.49,1,.91,2.04,1.35,3.08,.43,1.04,.73,2.13,1.11,3.2l.54,1.61,.27,.81,.21,.83,.41,1.66,.2,.82,.05,.2h0s.07-.04-.12,.04c-.37,.16,.38-.14-.32,0-.09,.16-.02,.08-.04,.1h0v-.06l-.04-.1-.1-.41,.49-.12c.44,2.32,.73,4.64,.87,7,.07,1.18,.1,2.37,.09,3.55,0,.59-.02,1.19-.05,1.79-.02,.3-.01,.57-.01,.88v.25h0v.06c.15,.2-.82,.14-.51,.02v-.66h.5c-.13,1.58-.35,3.09-.59,4.64-.27,1.54-.61,3.06-1.02,4.58-1.11,2.86,1.07,6.37,4.06,6.8,1.5,.22,3.09-.15,4.26-1.14,.58-.49,1.06-1.1,1.4-1.78,.36-.67,.53-1.44,.72-2.22,.79-3.08,1.35-6.24,1.58-9.45,.64-7.89-.47-15.8-2.88-23.11-1.21-3.66-2.75-7.18-4.6-10.49-1.85-3.31-4.05-6.39-6.52-9.19-4.94-5.6-10.89-10.1-17.3-13.33-6.42-3.23-13.3-5.13-20.12-5.87-6.82-.73-13.59-.24-19.92,1.26-6.33,1.52-12.2,4.01-17.52,7-10.66,6.03-19.03,14.1-25.34,22.33-6.32,8.27-10.82,16.62-14.28,24.12-3.45,7.52-5.89,14.23-7.79,19.73-.25,.69-.47,1.35-.44,2.03,.02,.67,.19,1.32,.45,1.89,.54,1.15,1.39,2.06,2.33,2.64,.94,.59,2,.75,2.93,.7,.94-.04,1.77-.3,2.42-.69,1.32-.79,1.94-1.85,2.31-2.52,.17-.35,.3-.62,.36-.81,.07-.18,.12-.28,.12-.28Z" style="fill:#263238;"></path></g><path d="M576.57,92.3c-.05-.16,2.64-.56,5.19-2.55,2.58-1.95,3.65-4.45,3.79-4.36,.06,.02-.13,.67-.67,1.61-.54,.94-1.48,2.14-2.8,3.16-1.32,1.01-2.73,1.62-3.77,1.9-1.05,.28-1.73,.29-1.73,.24Z" style="fill:#263238;"></path><path d="M566.79,80.76c-.09-.14,2.39-1.25,4.3-3.86,1.95-2.58,2.3-5.27,2.46-5.23,.06,0,.06,.68-.21,1.74-.26,1.05-.85,2.46-1.84,3.8-1,1.34-2.18,2.3-3.11,2.86-.93,.56-1.58,.75-1.6,.7Z" style="fill:#263238;"></path><path d="M554.8,73.58c-.12-.11,1.98-1.84,3.14-4.85,1.21-3,.84-5.69,1.01-5.69,.06,0,.24,.64,.25,1.73,.02,1.08-.17,2.6-.78,4.15-.61,1.55-1.51,2.79-2.26,3.57-.75,.78-1.33,1.14-1.37,1.09Z" style="fill:#263238;"></path><path d="M540.79,70.36c-.14-.09,1.61-2.17,2.19-5.35,.64-3.17-.22-5.75-.05-5.78,.06-.02,.35,.59,.57,1.65,.22,1.06,.31,2.59,0,4.23-.32,1.64-.97,3.02-1.56,3.93-.6,.91-1.1,1.36-1.14,1.32Z" style="fill:#263238;"></path><path d="M527.34,71.14c-.17,0,.25-2.69-.9-5.71-1.1-3.04-3.17-4.8-3.05-4.91,.04-.05,.6,.32,1.34,1.12,.74,.79,1.61,2.05,2.19,3.61,.58,1.56,.74,3.08,.7,4.17-.04,1.09-.23,1.73-.29,1.72Z" style="fill:#263238;"></path><path d="M513.48,76.15c-.17,.02-.16-2.7-1.76-5.51-1.55-2.84-3.87-4.26-3.76-4.39,.03-.05,.65,.22,1.5,.9,.85,.67,1.9,1.78,2.71,3.24,.81,1.46,1.2,2.94,1.33,4.01,.13,1.08,.04,1.75-.02,1.75Z" style="fill:#263238;"></path><path d="M501.14,84.38c-.15,.08-1.04-2.49-3.47-4.63-2.39-2.17-5.05-2.76-4.99-2.92,.01-.06,.68,0,1.71,.36,1.02,.35,2.38,1.06,3.63,2.17,1.24,1.11,2.1,2.38,2.57,3.35,.47,.98,.61,1.64,.55,1.66Z" style="fill:#263238;"></path><path d="M490.17,96.02c-.15,.08-1.04-2.49-3.47-4.63-2.39-2.17-5.05-2.76-4.99-2.92,.01-.06,.68,0,1.71,.36,1.02,.35,2.38,1.06,3.63,2.17,1.24,1.11,2.1,2.38,2.57,3.35,.47,.98,.61,1.64,.55,1.66Z" style="fill:#263238;"></path><path d="M480,110.23c-.15,.08-1.04-2.49-3.47-4.63-2.39-2.17-5.05-2.76-4.99-2.92,.01-.06,.68,0,1.71,.36,1.02,.35,2.38,1.06,3.63,2.17,1.24,1.11,2.1,2.38,2.57,3.35,.47,.98,.61,1.64,.55,1.66Z" style="fill:#263238;"></path><path d="M473.31,123.85c-.13,.1-1.44-2.28-4.2-3.97-2.73-1.73-5.44-1.86-5.41-2.03,0-.06,.67-.12,1.75,.06,1.07,.18,2.53,.64,3.94,1.52,1.41,.89,2.47,1.99,3.1,2.87,.63,.88,.88,1.51,.82,1.54Z" style="fill:#263238;"></path><path d="M582.77,106.24c-.01-.17,2.7-.02,5.59-1.46,2.92-1.39,4.47-3.63,4.59-3.51,.05,.03-.26,.63-.98,1.45-.72,.81-1.88,1.8-3.38,2.54-1.5,.73-3,1.04-4.08,1.11-1.08,.07-1.75-.06-1.74-.12Z" style="fill:#263238;"></path></g><g><g><g><path d="M619.2,455.26H196.44c-13.97,0-25.3-11.33-25.3-25.3V139.81c0-10.19,8.26-18.46,18.46-18.46h437.47c9.63,0,17.44,7.81,17.44,17.44V429.96c0,13.97-11.33,25.3-25.3,25.3Z" style="fill:#455a64;"></path><g><path d="M644.01,460.35H175.8c-13.51,0-24.46-10.95-24.46-24.46v-3.81c0-.52,.42-.94,.94-.94h510.98c.52,0,.94,.42,.94,.94v8.08c0,11.15-9.04,20.19-20.19,20.19Z" style="fill:#455a64;"></path><path d="M644.01,460.35s.23-.02,.69-.05c.46-.05,1.15,0,2.04-.19,1.78-.23,4.49-.82,7.53-2.66,1.53-.88,3.09-2.13,4.57-3.73,1.47-1.61,2.83-3.61,3.8-6,.98-2.39,1.51-5.17,1.47-8.14,0-1.49,0-3.03,0-4.62,0-.79,0-1.6,0-2.42,0-.41,.04-.82-.27-1.08-.27-.29-.69-.22-1.12-.23-26.93,.02-65.89,.05-114.03,.08-96.29,.02-229.3,.05-376.21,.08-4.59,0-9.17,0-13.74,0h-6.41c-.13,0-.21,.01-.31,.06-.19,.08-.34,.25-.39,.45-.04,.16-.02,.52-.02,.78v1.7c-.02,1.14,.03,2.26,.1,3.38,.19,2.23,.62,4.45,1.44,6.54,.34,1.07,.89,2.05,1.36,3.06,.59,.94,1.1,1.95,1.81,2.81,2.61,3.62,6.27,6.41,10.35,8.11,2.05,.83,4.21,1.37,6.4,1.64,2.19,.21,4.41,.17,6.64,.17h13.27c8.81,0,17.55,0,26.21,0,34.64,0,68.06,.01,99.89,.02,63.66,.02,120.99,.04,169.13,.06,48.14,.03,87.1,.06,114.02,.08,13.46,.02,23.91,.04,31,.05,3.54,.01,6.24,.02,8.06,.03,1.82,0,2.75,.03,2.75,.03,0,0-.93,.02-2.75,.03-1.82,0-4.52,.01-8.06,.03-7.09,.01-17.54,.03-31,.05-26.93,.02-65.88,.05-114.02,.08-48.14,.02-105.47,.03-169.13,.06-31.83,0-65.25,0-99.89,.02-8.66,0-17.4,0-26.21,0-4.4,0-8.83,0-13.27,0-2.22,0-4.44,.05-6.69-.17-2.24-.27-4.44-.83-6.54-1.67-4.17-1.73-7.91-4.59-10.57-8.28-.72-.88-1.24-1.91-1.85-2.87-.48-1.03-1.04-2.03-1.39-3.13-.84-2.13-1.27-4.4-1.47-6.68-.07-1.15-.12-2.29-.1-3.42v-1.7c.02-.3-.04-.52,.04-.92,.09-.35,.35-.65,.69-.8,.16-.07,.36-.1,.52-.1h6.41c4.56,0,9.14,0,13.74,0,146.91,.03,279.92,.06,376.21,.08,48.14,.04,87.1,.06,114.03,.08h.64c.23,.03,.45,.12,.62,.28,.17,.16,.28,.37,.32,.59,.03,.24,0,.42,.01,.63,0,.82,0,1.62,0,2.42,0,1.59,0,3.13,0,4.62,.03,2.99-.51,5.8-1.51,8.2-.98,2.41-2.36,4.42-3.84,6.03-1.49,1.61-3.06,2.86-4.61,3.74-3.06,1.83-5.79,2.41-7.58,2.62-.9,.17-1.59,.12-2.05,.16-.46,.02-.69,.02-.69,.02Z" style="fill:#263238;"></path></g><g><rect x="190.54" y="141.74" width="433.24" height="273.52" rx="5.27" ry="5.27" style="fill:#f5f5f5;"></rect><path d="M618.51,415.26s.31,.01,.91-.1c.59-.11,1.49-.37,2.42-1.12,.91-.74,1.84-2.08,1.89-3.87,0-1.78,0-3.84,0-6.17-.01-9.36-.03-23.15-.05-40.92-.02-35.54-.05-86.96-.08-150.5,0-15.88-.01-32.53-.02-49.87,0-4.34,0-8.71,0-13.14v-1.66c0-.56,.02-1.11-.06-1.63-.14-1.06-.65-2.06-1.4-2.83-.76-.76-1.75-1.29-2.82-1.44-.52-.09-1.08-.06-1.65-.07h-1.69c-9.01,0-18.19,0-27.53,0-37.36,0-77.27,.02-119.28,.02-84.01,0-176.37,.01-273.31,.02-1.45-.02-2.87,.64-3.81,1.73-.47,.54-.83,1.18-1.03,1.88-.21,.69-.21,1.4-.2,2.17,0,3.02,0,6.04,0,9.05,0,6.02,0,12.03,0,18.02,0,11.97,0,23.86,0,35.67,0,23.61,0,46.88,0,69.74,0,22.86,0,45.31,0,67.31,0,11,0,21.88,0,32.63,0,5.38,0,10.73,0,16.04,0,2.66,0,5.31,0,7.95v3.96c.03,1.32-.14,2.65,.39,3.8,.48,1.16,1.41,2.12,2.55,2.63,.57,.26,1.18,.41,1.81,.44,.63,.03,1.3,0,1.94,.01,2.61,0,5.21,0,7.8,0,5.18,0,10.34,0,15.45,0,10.23,0,20.33,0,30.28,0,19.9,0,39.22,0,57.9,.01,37.36,.01,72.16,.02,103.93,.03,63.54,.04,114.95,.06,150.49,.08,17.76,.02,31.56,.04,40.91,.05,4.67,.01,8.24,.02,10.64,.03,2.4,0,3.63,.03,3.63,.03,0,0-1.23,.02-3.63,.03-2.4,0-5.97,.01-10.64,.03-9.36,.01-23.15,.03-40.91,.05-35.54,.02-86.95,.05-150.49,.08-31.77,0-66.57,.02-103.93,.03-18.68,0-38,0-57.9,.01-9.95,0-20.05,0-30.28,0-5.12,0-10.27,0-15.45,0-2.59,0-5.19,0-7.8,0-.66,0-1.29,.02-1.97-.01-.68-.04-1.36-.2-1.98-.49-1.25-.56-2.27-1.61-2.8-2.88-.27-.63-.41-1.32-.42-2.01v-13.89c0-5.32,0-10.66-.01-16.04,0-10.76,0-21.64,0-32.63,0-21.99,0-44.45,0-67.31,0-22.86,0-46.12,0-69.74,0-11.81,0-23.7,0-35.67,0-5.99,0-11.99,0-18.02,0-3.01,0-6.03,0-9.05,0-.74-.01-1.56,.22-2.32,.22-.76,.61-1.48,1.13-2.07,1.04-1.2,2.61-1.93,4.21-1.91,96.94,0,189.3,.01,273.31,.02,42,0,81.92,.02,119.28,.02,9.34,0,18.52,0,27.53,0h1.69c.55,0,1.13-.03,1.71,.07,1.16,.17,2.23,.75,3.05,1.57,.8,.83,1.36,1.91,1.51,3.06,.08,.58,.06,1.14,.06,1.69v1.66c0,4.42,0,8.8,0,13.14,0,17.34-.01,33.98-.02,49.87-.04,63.54-.06,114.96-.08,150.5-.02,17.77-.04,31.56-.05,40.92,0,2.34-.02,4.4-.02,6.18-.06,1.81-1.01,3.16-1.93,3.91-.95,.76-1.86,1.01-2.45,1.11-.3,.05-.53,.07-.68,.07-.15,0-.23,0-.23,0Z" style="fill:#263238;"></path></g><polygon points="361.15 430.57 367.52 441.36 457.07 441.36 462.98 430.57 361.15 430.57" style="fill:#263238;"></polygon></g><path d="M411.32,132.47c0,1.96-1.59,3.55-3.55,3.55s-3.55-1.59-3.55-3.55,1.59-3.55,3.55-3.55,3.55,1.59,3.55,3.55Z" style="fill:#263238;"></path></g><g style="opacity:.3;"><path d="M253.9,113.16h309.03c5.35,0,9.7,4.35,9.7,9.7v218.8c0,6.83-5.54,12.37-12.37,12.37H253.35c-5.05,0-9.15-4.1-9.15-9.15V122.85c0-5.35,4.35-9.7,9.7-9.7Z"></path></g><path d="M215.82,219.09c2.46-1.75,5.12-3.13,7.89-4.15l1.08-8.19,13.61-1.25,2.55,7.86c2.91,.49,5.77,1.37,8.51,2.64l6.55-5.03,10.51,8.74-3.75,7.36c1.75,2.46,3.13,5.12,4.14,7.89l8.19,1.08,1.25,13.61-7.86,2.55c-.49,2.91-1.37,5.77-2.64,8.51l5.02,6.56-8.74,10.51-7.36-3.75c-2.46,1.75-5.12,3.13-7.89,4.14l-1.08,8.19-13.61,1.25-2.55-7.86c-2.91-.49-5.77-1.37-8.51-2.64l-6.55,5.03-10.51-8.74,3.75-7.36c-1.75-2.46-3.13-5.12-4.15-7.89l-8.19-1.08-1.25-13.61,7.86-2.55c.49-2.91,1.37-5.77,2.64-8.51l-5.02-6.55,8.74-10.51,7.36,3.75h0Zm8.61,17.62c-5.18,6.23-4.33,15.47,1.89,20.65,6.23,5.18,15.47,4.33,20.65-1.89,5.18-6.23,4.33-15.47-1.89-20.65-6.23-5.18-15.47-4.33-20.65,1.89Z" style="fill:#e0e0e0;"></path><path d="M604.26,176.99c1.75,2.46,3.13,5.12,4.14,7.89l8.19,1.08,1.25,13.61-7.86,2.55c-.49,2.91-1.37,5.77-2.64,8.51l5.03,6.55-8.74,10.51-7.36-3.75c-2.46,1.75-5.12,3.13-7.89,4.14l-1.08,8.19-13.61,1.25-2.55-7.86c-2.91-.49-5.77-1.37-8.51-2.64l-6.56,5.02-10.51-8.74,3.75-7.36c-1.75-2.46-3.13-5.12-4.14-7.89l-8.19-1.08-1.25-13.61,7.86-2.55c.49-2.91,1.37-5.77,2.64-8.51l-5.03-6.55,8.74-10.51,7.36,3.75c2.46-1.75,5.12-3.13,7.89-4.15l1.08-8.19,13.61-1.25,2.55,7.86c2.91,.49,5.77,1.37,8.51,2.64l6.55-5.02,10.51,8.74-3.75,7.36h0Zm-17.62,8.61c-6.23-5.18-15.47-4.33-20.65,1.89-5.18,6.23-4.33,15.47,1.89,20.65s15.47,4.33,20.65-1.89c5.18-6.23,4.33-15.47-1.89-20.65Z" style="fill:#e0e0e0;"></path><g><g><path d="M235.74,95h342.83c5.35,0,9.7,4.35,9.7,9.7v226.28c0,6.83-5.54,12.37-12.37,12.37H235.2c-5.05,0-9.15-4.1-9.15-9.15V104.7c0-5.35,4.35-9.7,9.7-9.7Z" style="fill:#263238;"></path><g><rect x="272.28" y="130.62" width="25.55" height="5.57" style="fill:#455a64;"></rect><rect x="272.28" y="155.57" width="12.77" height="5.57" style="fill:#060606;"></rect><rect x="281.89" y="168.12" width="17.99" height="5.57" style="fill:#455a64;"></rect><rect x="302.74" y="168.12" width="10.48" height="5.57" style="fill:#455a64;"></rect><rect x="385.64" y="168.12" width="21.55" height="5.57" style="fill:#455a64;"></rect><rect x="433.77" y="180.36" width="36.41" height="5.57" style="fill:#455a64;"></rect><rect x="508.87" y="168.12" width="17.49" height="5.57" style="fill:#455a64;"></rect><rect x="531.72" y="168.12" width="35.16" height="5.57" style="fill:#455a64;"></rect><rect x="281.89" y="180.36" width="17.99" height="5.57" style="fill:#455a64;"></rect><rect x="270.84" y="192.56" width="17.99" height="5.57" style="fill:#060606;"></rect><rect x="280.43" y="204.76" width="8.4" height="5.57" style="fill:#455a64;"></rect><rect x="311.28" y="230.47" width="8.4" height="5.57" style="fill:#455a64;"></rect><rect x="426.88" y="276.91" width="16.42" height="5.57" style="fill:#455a64;"></rect><rect x="494.81" y="276.91" width="40.23" height="5.57" style="fill:#455a64;"></rect><rect x="365.06" y="264.72" width="16.42" height="5.57" style="fill:#e0e0e0;"></rect><rect x="305.56" y="254.26" width="16.42" height="5.57" style="fill:#455a64;"></rect><rect x="397.58" y="276.91" width="25.89" height="5.57" style="fill:#455a64;"></rect><rect x="280.43" y="217.19" width="13.64" height="5.57" style="fill:#455a64;"></rect><rect x="280.43" y="230.67" width="25.3" height="5.57" style="fill:#455a64;"></rect><rect x="280.43" y="241" width="37.01" height="5.57" style="fill:#455a64;"></rect><rect x="347.48" y="241" width="37.01" height="5.57" style="fill:#455a64;"></rect><rect x="305.24" y="264.72" width="51.97" height="5.57" style="fill:#455a64;"></rect><rect x="305.24" y="276.91" width="87.9" height="5.57" style="fill:#455a64;"></rect><rect x="278.64" y="289.1" width="87.9" height="5.57" style="fill:#455a64;"></rect><rect x="321.35" y="241" width="22.2" height="5.57" style="fill:#455a64;"></rect><rect x="292.15" y="204.76" width="22.91" height="5.57" style="fill:#455a64;"></rect><rect x="297.19" y="217.19" width="22.91" height="5.57" style="fill:#455a64;"></rect><rect x="348.21" y="217.19" width="60.67" height="5.57" style="fill:#455a64;"></rect><rect x="410.53" y="217.19" width="70.07" height="5.57" style="fill:#455a64;"></rect><rect x="323.87" y="217.19" width="18.96" height="5.57" style="fill:#455a64;"></rect><rect x="318.2" y="204.76" width="30.03" height="5.57" style="fill:#455a64;"></rect><rect x="351.55" y="204.76" width="16.72" height="5.57" style="fill:#e0e0e0;"></rect><rect x="302.74" y="180.36" width="18.75" height="5.57" style="fill:#455a64;"></rect><rect x="334.23" y="180.36" width="92.59" height="5.57" style="fill:#455a64;"></rect><rect x="486.98" y="217.19" width="43.78" height="5.57" style="fill:#455a64;"></rect><rect x="447.56" y="276.91" width="43.78" height="5.57" style="fill:#455a64;"></rect><rect x="410.86" y="168.12" width="91.21" height="5.57" style="fill:#455a64;"></rect><rect x="316.5" y="168.12" width="63.47" height="5.57" style="fill:#455a64;"></rect><rect x="272.28" y="142.43" width="42.73" height="5.57" style="fill:#455a64;"></rect><rect x="319.28" y="142.43" width="58.51" height="5.57" style="fill:#455a64;"></rect><rect x="301.82" y="130.62" width="18.81" height="5.57" style="fill:#e0e0e0;"></rect><rect x="247.38" y="130.62" width="5.4" height="5.57" style="fill:#455a64;"></rect><rect x="247.38" y="142.81" width="5.4" height="5.57" style="fill:#455a64;"></rect><rect x="247.38" y="155" width="5.4" height="5.57" style="fill:#455a64;"></rect><rect x="247.38" y="167.19" width="5.4" height="5.57" style="fill:#455a64;"></rect><rect x="247.38" y="179.38" width="5.4" height="5.57" style="fill:#455a64;"></rect><rect x="247.38" y="191.57" width="5.4" height="5.57" style="fill:#455a64;"></rect><rect x="247.38" y="203.76" width="5.4" height="5.57" style="fill:#455a64;"></rect><rect x="247.38" y="215.95" width="5.4" height="5.57" style="fill:#455a64;"></rect><rect x="247.38" y="228.15" width="5.4" height="5.57" style="fill:#455a64;"></rect><rect x="309.21" y="315.43" width="8.4" height="5.57" style="fill:#e0e0e0;"></rect><rect x="278.81" y="315.43" width="25.3" height="5.57" style="fill:#060606;"></rect><rect x="247.38" y="314.82" width="5.4" height="5.57" style="fill:#455a64;"></rect><rect x="247.38" y="240.34" width="5.4" height="5.57" style="fill:#455a64;"></rect><rect x="247.38" y="252.53" width="5.4" height="5.57" style="fill:#455a64;"></rect><rect x="247.38" y="264.72" width="5.4" height="5.57" style="fill:#455a64;"></rect><rect x="247.38" y="276.91" width="5.4" height="5.57" style="fill:#455a64;"></rect><rect x="247.38" y="289.1" width="5.4" height="5.57" style="fill:#455a64;"></rect><rect x="278.64" y="301.93" width="25.63" height="5.57" style="fill:#455a64;"></rect><rect x="309.21" y="301.93" width="57.97" height="5.57" style="fill:#455a64;"></rect><rect x="247.38" y="301.93" width="5.4" height="5.57" style="fill:#455a64;"></rect><rect x="384.93" y="142.39" width="18.81" height="5.57" style="fill:#e0e0e0;"></rect></g><circle cx="246.25" cy="111.06" r="3.83" style="fill:#455a64;"></circle><circle cx="256.88" cy="111.06" r="3.83" style="fill:#455a64;"></circle><circle cx="267.5" cy="111.06" r="3.83" style="fill:#455a64;"></circle></g><path d="M262.31,129.03c.14,0,.26,47.96,.26,107.1s-.12,107.11-.26,107.11-.26-47.95-.26-107.11,.12-107.1,.26-107.1Z" style="fill:#455a64;"></path></g><g><g><path d="M254.87,383.39l2.61-.85-.41-4.52-2.72-.36c-.34-.92-.8-1.8-1.38-2.62l1.25-2.45-3.49-2.91-2.18,1.67c-.91-.42-1.86-.71-2.83-.88l-.85-2.61-4.53,.41-.36,2.72c-.92,.34-1.8,.8-2.62,1.38l-2.45-1.25-2.91,3.49,1.67,2.18c-.42,.91-.71,1.86-.88,2.83l-2.61,.85,.41,4.52,2.72,.36c.34,.92,.8,1.8,1.38,2.62l-1.25,2.45,3.49,2.91,2.18-1.67c.91,.42,1.86,.71,2.83,.88l.85,2.61,4.52-.41,.36-2.72c.92-.34,1.8-.8,2.62-1.38l2.45,1.25,2.91-3.49-1.67-2.18c.42-.91,.71-1.86,.88-2.83Zm-7.16,1.08c-1.72,2.07-4.8,2.35-6.86,.63-2.07-1.72-2.35-4.8-.63-6.87,1.72-2.07,4.8-2.35,6.86-.63s2.35,4.8,.63,6.86Z" style="fill:#e0e0e0;"></path><g><path d="M254.87,383.39l2.61-.85-.41-4.52-2.72-.36c-.34-.92-.8-1.8-1.38-2.62l1.25-2.45-3.49-2.91-2.18,1.67c-.91-.42-1.86-.71-2.83-.88l-.85-2.61-4.53,.41-.36,2.72c-.92,.34-1.8,.8-2.62,1.38l-2.45-1.25-2.91,3.49,1.67,2.18c-.42,.91-.71,1.86-.88,2.83l-2.61,.85,.41,4.52,2.72,.36c.34,.92,.8,1.8,1.38,2.62l-1.25,2.45,3.49,2.91,2.18-1.67c.91,.42,1.86,.71,2.83,.88l.85,2.61,4.52-.41,.36-2.72c.92-.34,1.8-.8,2.62-1.38l2.45,1.25,2.91-3.49-1.67-2.18c.42-.91,.71-1.86,.88-2.83Zm-7.16,1.08c-1.72,2.07-4.8,2.35-6.86,.63-2.07-1.72-2.35-4.8-.63-6.87,1.72-2.07,4.8-2.35,6.86-.63s2.35,4.8,.63,6.86Z" style="fill:none;"></path><path d="M247.71,384.47s.24-.36,.55-1.06c.3-.68,.59-1.8,.27-3.11-.29-1.29-1.33-2.72-3-3.3-1.63-.61-3.83-.17-5.12,1.4-1.32,1.55-1.35,3.8-.45,5.29,.87,1.54,2.48,2.29,3.79,2.34,1.34,.08,2.4-.41,3.01-.83,.63-.43,.9-.77,.94-.74,.01,.01-.05,.1-.17,.26-.12,.17-.34,.39-.65,.63-.6,.49-1.7,1.07-3.15,1.03-1.42,0-3.2-.79-4.19-2.47-1.02-1.63-1-4.13,.46-5.86,1.43-1.76,3.9-2.23,5.68-1.52,1.83,.67,2.92,2.28,3.19,3.67,.3,1.42-.07,2.6-.44,3.28-.18,.35-.37,.6-.51,.75-.14,.15-.22,.23-.23,.22Z" style="fill:#263238;"></path><path d="M254.87,383.39s-.02,1.06-.8,2.87v-.09c.47,.61,1.04,1.33,1.69,2.16l.06,.07-.06,.07c-.83,1.01-1.79,2.19-2.88,3.52l-.08,.09-.11-.06c-.77-.39-1.59-.8-2.45-1.23h.18c-.77,.54-1.66,1.03-2.66,1.4l.12-.15c-.11,.85-.23,1.77-.35,2.72l-.02,.16-.16,.02c-1.43,.14-2.94,.28-4.52,.43l-.17,.02-.05-.16c-.27-.81-.56-1.7-.86-2.61l.18,.15c-.93-.15-1.93-.44-2.89-.89l.24-.03c-.68,.52-1.42,1.09-2.17,1.68l-.15,.12-.15-.12c-1.1-.91-2.29-1.9-3.5-2.9l-.15-.13,.09-.18c.39-.76,.81-1.6,1.24-2.45l.02,.26c-.55-.78-1.05-1.69-1.41-2.68l.21,.17c-.86-.11-1.79-.23-2.72-.36l-.2-.03-.02-.21c-.13-1.44-.27-2.97-.42-4.52l-.02-.21,.2-.06c.83-.27,1.72-.56,2.61-.85h0s-.33,.39-.18,.2h0v-.09l.03-.09,.04-.19,.08-.37c.06-.25,.13-.49,.2-.73,.15-.48,.33-.96,.54-1.41l.03,.27c-.56-.73-1.12-1.46-1.67-2.18l-.13-.16,.13-.16c.98-1.18,1.95-2.35,2.91-3.49l.13-.16,.18,.09c.82,.42,1.64,.84,2.44,1.25l-.26,.02c.84-.59,1.75-1.06,2.68-1.4l-.16,.2c.12-.92,.24-1.83,.36-2.72l.03-.19,.19-.02c1.55-.14,3.06-.27,4.53-.4l.19-.02,.06,.18c.29,.89,.57,1.76,.84,2.61l-.18-.15c1.02,.18,1.99,.49,2.88,.9l-.22,.02c.76-.58,1.48-1.13,2.18-1.66l.13-.1,.13,.11c1.24,1.04,2.39,2.01,3.48,2.92l.11,.1-.07,.13c-.45,.87-.86,1.67-1.26,2.44v-.18c.62,.9,1.06,1.8,1.37,2.67l-.12-.1c1.01,.14,1.9,.27,2.72,.38h.1v.12c.16,1.91,.28,3.4,.37,4.53v.07l-.06,.02c-.86,.26-1.5,.45-1.97,.6-.44,.13-.66,.19-.67,.18-.01,0,.19-.09,.61-.24,.47-.16,1.12-.39,1.97-.69l-.05,.08c-.12-1.13-.27-2.61-.47-4.52l.11,.12c-.82-.1-1.71-.21-2.73-.34h-.09l-.03-.1c-.32-.84-.75-1.71-1.37-2.58l-.06-.08,.05-.09,1.23-2.45,.05,.23c-1.1-.9-2.26-1.86-3.51-2.89h.26c-.7,.55-1.42,1.1-2.17,1.68l-.1,.08-.12-.06c-.86-.39-1.79-.69-2.78-.85l-.13-.02-.04-.13c-.28-.85-.56-1.72-.86-2.61l.24,.16c-1.46,.14-2.97,.28-4.52,.42l.22-.21c-.12,.89-.23,1.8-.35,2.72l-.02,.15-.14,.05c-.9,.33-1.76,.78-2.56,1.35l-.12,.09-.14-.07c-.81-.41-1.62-.82-2.45-1.24l.31-.06c-.95,1.15-1.92,2.31-2.9,3.5v-.32c.56,.72,1.12,1.45,1.68,2.18l.1,.12-.07,.14c-.2,.44-.38,.89-.52,1.35-.07,.23-.14,.47-.19,.7l-.08,.36-.03,.18-.02,.09v.07h-.01v.02h0c.16-.18-.21,.25-.18,.21h0c-.89,.29-1.78,.58-2.61,.85l.18-.27c.14,1.55,.28,3.09,.41,4.53l-.22-.23c.94,.12,1.87,.25,2.72,.36l.15,.02,.05,.15c.34,.94,.82,1.82,1.34,2.56l.09,.12-.07,.14c-.43,.84-.86,1.68-1.25,2.44l-.06-.3c1.21,1.01,2.39,2,3.49,2.91h-.3c.76-.58,1.5-1.15,2.18-1.67l.11-.09,.13,.06c.92,.43,1.88,.72,2.77,.87l.13,.02,.04,.13c.29,.91,.58,1.8,.84,2.61l-.22-.15c1.58-.14,3.1-.27,4.53-.4l-.18,.17c.13-.95,.26-1.88,.37-2.72l.02-.11,.11-.04c.97-.35,1.84-.82,2.59-1.34l.09-.06,.09,.05c.86,.44,1.67,.86,2.44,1.26l-.19,.04c1.1-1.31,2.09-2.47,2.93-3.47v.15c-.63-.84-1.19-1.58-1.65-2.2l-.03-.04,.02-.05c.42-.87,.63-1.58,.76-2.06,.13-.48,.18-.74,.19-.73Z" style="fill:#263238;"></path></g></g><g><path d="M563.75,390.39H275.15c-4.9,0-8.88-3.97-8.88-8.88h0c0-4.9,3.97-8.88,8.88-8.88h288.6c4.9,0,8.88,3.97,8.88,8.88h0c0,4.9-3.97,8.88-8.88,8.88Z" style="fill:#e0e0e0;"></path><path d="M275.15,372.64c-4.9,0-8.88,3.97-8.88,8.88s3.97,8.88,8.88,8.88h147.1l9.25-17.75h-156.35Z" style="fill:#060606;"></path><polygon points="385.13 390.39 394.02 372.64 385.61 372.64 376.32 390.39 385.13 390.39" style="fill:#fff; opacity:.3;"></polygon><polygon points="361.06 390.39 369.95 372.64 361.54 372.64 352.26 390.39 361.06 390.39" style="fill:#fff; opacity:.3;"></polygon><polygon points="337 390.39 345.88 372.64 337.47 372.64 328.19 390.39 337 390.39" style="fill:#fff; opacity:.3;"></polygon><polygon points="312.93 390.39 321.81 372.64 313.4 372.64 304.12 390.39 312.93 390.39" style="fill:#fff; opacity:.3;"></polygon><polygon points="288.86 390.39 297.74 372.64 289.34 372.64 280.05 390.39 288.86 390.39" style="fill:#fff; opacity:.3;"></polygon><polygon points="408.23 390.39 417.12 372.64 408.71 372.64 399.42 390.39 408.23 390.39" style="fill:#fff; opacity:.3;"></polygon><path d="M563.75,390.39s.14-.02,.41-.03c.27,0,.68-.05,1.21-.15,1.04-.2,2.64-.7,4.22-2.09,1.55-1.36,3.06-3.79,2.94-6.89,0-.77-.17-1.55-.39-2.34-.26-.78-.62-1.55-1.11-2.29-1-1.43-2.49-2.72-4.37-3.35-1.87-.72-4.03-.45-6.25-.49-2.22,0-4.55,0-6.99,.01-4.87,0-10.17,.01-15.85,.02-11.38,.01-24.33,.02-38.64,.04-57.28,.02-136.39,.05-223.76,.08-2.65,0-5.28,1.27-6.86,3.4-1.63,2.08-2.16,4.93-1.47,7.46,.65,2.55,2.58,4.68,4.97,5.7,1.21,.51,2.5,.7,3.82,.67h4c10.64,0,21.13,0,31.43,0,20.6,0,40.48,.01,59.41,.02,37.86,.02,71.96,.04,100.6,.06,28.63,.03,51.8,.06,67.82,.08,8,.02,14.22,.04,18.44,.05,2.1,.01,3.71,.02,4.8,.03,1.08,0,1.63,.03,1.63,.03,0,0-.55,.02-1.63,.03-1.09,0-2.69,.01-4.8,.03-4.22,.01-10.44,.03-18.44,.05-16.02,.02-39.19,.05-67.82,.08-28.64,.02-62.73,.03-100.6,.06-18.93,0-38.81,.01-59.41,.02-10.3,0-20.79,0-31.43,0h-4c-1.34,.02-2.75-.17-4.02-.71-2.53-1.08-4.58-3.34-5.27-6.05-.74-2.68-.17-5.7,1.56-7.91,1.67-2.25,4.46-3.6,7.27-3.6,87.38,.03,166.49,.06,223.76,.08,14.32,.01,27.27,.03,38.64,.04,5.69,0,10.98,.01,15.85,.02,2.44,0,4.77,0,6.99,.01,1.11,0,2.2,0,3.25,0,1.07,0,2.11,.18,3.06,.52,1.93,.66,3.44,1.98,4.45,3.45,.49,.75,.86,1.54,1.12,2.34,.22,.81,.38,1.6,.39,2.38,.1,3.15-1.45,5.61-3.03,6.97-1.61,1.4-3.23,1.89-4.28,2.07-.54,.09-.94,.13-1.22,.12-.27,0-.41,0-.41,0Z" style="fill:#263238;"></path></g></g><path d="M627.38,321.61l-50.43-52.13c15.48-17.14,21.01-39.94,16.81-61.11-2.77-13.99-9.77-27.26-20.95-37.72-13.76-12.89-31.72-19.65-50.57-19.04-18.7,.61-36.05,8.42-48.91,21.98-1.29,1.19-2.56,2.42-3.78,3.72-26.61,28.41-25.15,73.18,3.26,99.8,13.76,12.89,31.73,19.65,50.57,19.04,15.98-.52,30.96-6.31,43.02-16.45l50.35,52.04c1.79,1.71,5.4,1.39,7.98-1.1l2.25-2.17c2-1.94,1.8-5.42,.4-6.85Zm-57.8-147.51c4.87,4.56,8.95,9.74,12.18,15.38-3.31-5.57-7.45-10.78-12.41-15.43-3.22-3.02-6.68-5.69-10.33-8.02,3.74,2.31,7.28,5,10.56,8.07Zm-93.53,99.56c-4.4-4.12-8.09-8.7-11.1-13.61,3.12,4.91,6.9,9.51,11.33,13.66,3.23,3.02,6.69,5.69,10.34,8.03-3.74-2.31-7.29-5-10.57-8.08Zm92.96-2.89c-11.59,10.64-26.42,16.74-42.31,17.25-17.59,.58-34.34-5.73-47.19-17.76-10.43-9.76-16.96-22.15-19.55-35.2-3.99-20.13,1.43-41.83,16.5-57.92,.05-.05,.1-.1,.15-.15,11.59-10.64,26.43-16.74,42.32-17.26,17.59-.58,34.35,5.73,47.19,17.76,12.84,12.03,20.23,28.34,20.81,45.93,.58,17.59-5.73,34.34-17.76,47.19-.05,.05-.1,.1-.15,.15Z" style="opacity:.3;"></path></g><g><g><g><path d="M578.56,267.9c-12.89,13.76-30.37,21.68-49.22,22.3-18.85,.62-36.81-6.14-50.57-19.04h0c-28.41-26.62-29.88-71.38-3.26-99.8,12.89-13.76,30.37-21.68,49.22-22.3,18.85-.62,36.81,6.14,50.57,19.04,11.18,10.47,18.18,23.74,20.95,37.72,4.27,21.57-1.54,44.83-17.69,62.07Zm-96.56-.19c12.84,12.03,29.6,18.34,47.19,17.76,17.59-.57,33.9-7.96,45.92-20.81,12.03-12.84,18.34-29.6,17.76-47.19-.57-17.59-7.96-33.9-20.81-45.93-12.84-12.03-29.6-18.34-47.19-17.76-17.59,.57-33.9,7.96-45.93,20.81-15.07,16.09-20.49,37.79-16.5,57.92,2.58,13.05,9.12,25.43,19.55,35.2Z" style="fill:#455a64;"></path><path d="M578.56,267.9c-12.89,13.76-30.37,21.68-49.22,22.3-18.85,.62-36.81-6.14-50.57-19.04h0c-28.41-26.62-29.88-71.38-3.26-99.8,12.89-13.76,30.37-21.68,49.22-22.3,18.85-.62,36.81,6.14,50.57,19.04,11.18,10.47,18.18,23.74,20.95,37.72,4.27,21.57-1.54,44.83-17.69,62.07Zm-96.56-.19c12.84,12.03,29.6,18.34,47.19,17.76,17.59-.57,33.9-7.96,45.92-20.81,12.03-12.84,18.34-29.6,17.76-47.19-.57-17.59-7.96-33.9-20.81-45.93-12.84-12.03-29.6-18.34-47.19-17.76-17.59,.57-33.9,7.96-45.93,20.81-15.07,16.09-20.49,37.79-16.5,57.92,2.58,13.05,9.12,25.43,19.55,35.2Z" style="fill:#060606;"></path><g style="opacity:.3;"><path d="M578.56,267.9c-12.89,13.76-30.37,21.68-49.22,22.3-18.85,.62-36.81-6.14-50.57-19.04h0c-28.41-26.62-29.88-71.38-3.26-99.8,12.89-13.76,30.37-21.68,49.22-22.3,18.85-.62,36.81,6.14,50.57,19.04,11.18,10.47,18.18,23.74,20.95,37.72,4.27,21.57-1.54,44.83-17.69,62.07Zm-96.56-.19c12.84,12.03,29.6,18.34,47.19,17.76,17.59-.57,33.9-7.96,45.92-20.81,12.03-12.84,18.34-29.6,17.76-47.19-.57-17.59-7.96-33.9-20.81-45.93-12.84-12.03-29.6-18.34-47.19-17.76-17.59,.57-33.9,7.96-45.93,20.81-15.07,16.09-20.49,37.79-16.5,57.92,2.58,13.05,9.12,25.43,19.55,35.2Z"></path></g><path d="M582.03,264.5c-12.89,13.76-30.37,21.68-49.22,22.3-18.85,.62-36.81-6.14-50.57-19.04h0c-28.41-26.62-29.88-71.38-3.26-99.8,12.89-13.76,30.37-21.68,49.22-22.3,18.85-.62,36.81,6.14,50.57,19.04,11.18,10.47,18.18,23.74,20.95,37.72,4.27,21.57-1.54,44.83-17.69,62.07Zm-96.56-.19c12.84,12.03,29.6,18.34,47.19,17.76,17.59-.57,33.9-7.96,45.92-20.81,12.03-12.84,18.34-29.6,17.76-47.19-.57-17.59-7.96-33.9-20.81-45.93-12.84-12.03-29.6-18.34-47.19-17.76-17.59,.57-33.9,7.96-45.93,20.81-15.07,16.09-20.49,37.79-16.5,57.92,2.58,13.05,9.12,25.43,19.55,35.2Z" style="fill:#060606;"></path></g><path d="M630.68,324.69l2.25-2.17c2-1.94,1.8-5.42,.4-6.85l-52.5-54.27-10.55,10.2,52.42,54.18c1.79,1.71,5.4,1.39,7.98-1.1Z" style="fill:#060606;"></path></g><path d="M607.16,288.62l9.08-8.93-2.46-2.57s5.07-8.03,16.93-7.94c11.86,.1,13.79,.18,13.79,.18v-7.96l-35.77,4.05-8.2,7.9-4.16,8.76,10.79,6.51Z" style="opacity:.3;"></path><g><path d="M610.36,272.52c.67-.71,1.38-1.39,2.12-2.03,.28-.24,.99-.62,1.14-.94-.29,.61-.89,.65-.22,.18,.24-.17,.47-.34,.71-.51,1.71-1.19,3.53-2.21,5.41-3.08,.38-.17,1.83-.73,.24-.13,.49-.19,.98-.4,1.48-.58,1.09-.41,2.2-.77,3.32-1.09,2.14-.62,4.33-1.08,6.53-1.41,.35-.05,1.38-.12-.2,.02,.19-.02,.38-.05,.57-.07,.57-.07,1.15-.13,1.72-.18,1.27-.11,2.54-.19,3.81-.22,2.41-.07,4.82,0,7.23,.19,1.12,.09,2.25,.31,3.37,.35-1.66-.06,.39,.06,.83,.13,.72,.12,1.44,.24,2.16,.38,2.49,.47,4.96,1.08,7.4,1.81,1.13,.34,2.25,.7,3.36,1.09,.37,.13,3.95,1.28,3.93,1.51,0-.09-1.08-.47,0,0,.3,.13,.6,.26,.89,.4,.5,.22,.99,.45,1.48,.69,1.28,.61,2.54,1.26,3.78,1.95,2.3,1.28,4.54,2.69,6.68,4.22,.54,.39,1.07,.78,1.6,1.18,.93,.7-.87-.7,.04,.03,.26,.21,.52,.41,.78,.62,1.03,.84,2.04,1.72,3.02,2.62,2.28,2.11,4.32,4.41,6.33,6.77,.37,.43,.72,.88,1.08,1.33,.62,.78-.87-1.15-.35-.46,.13,.18,.27,.36,.4,.54,.3,.41,.6,.82,.9,1.23,1.59,2.25,3.05,4.59,4.38,7,.85,1.53,1.64,3.09,2.39,4.67,.41,.86,.79,1.74,1.17,2.61,.39,.88-.48-1.18-.12-.28,.09,.23,.19,.46,.28,.69,.19,.47,.38,.95,.56,1.42,1.62,4.27,2.88,8.67,3.73,13.16,.21,1.1,.38,2.21,.55,3.31,.17,1.12-.15-1.22-.01-.09,.04,.31,.08,.62,.11,.94,.08,.74,.16,1.48,.22,2.22,.22,2.65,.3,5.31,.24,7.97-.03,1.28-.09,2.56-.19,3.83-.05,.71-.12,1.42-.19,2.13-.04,.36-.08,.72-.12,1.08-.03,.3-.12,1.94-.06,.49-.06,1.34-.43,2.75-.68,4.07-.32,1.65-.7,3.3-1.12,4.93-.83,3.2-1.86,6.35-3.05,9.43-.16,.4-.32,.81-.48,1.21-.05,.12-.6,1.46-.17,.43-.29,.68-.59,1.36-.9,2.04-.8,1.76-1.64,3.5-2.54,5.21-1.44,2.73-3.02,5.39-4.75,7.95-.75,1.11-1.53,2.2-2.33,3.26-.15,.2-.82,1.21-.08,.12-.2,.29-.44,.56-.66,.83-.51,.63-1.02,1.25-1.55,1.87-1.72,2.01-3.55,3.94-5.47,5.76-.87,.83-1.77,1.64-2.68,2.42-.43,.37-.86,.73-1.29,1.08-.23,.19-.47,.38-.71,.57-.27,.21-1.43,1.01-.16,.14-3.65,2.5-7.17,5.02-11.12,7.07-1.71,.89-3.49,1.62-5.22,2.46,1.66-.8,.16-.07-.26,.09-.4,.16-.81,.32-1.21,.47-.77,.29-1.55,.58-2.33,.84-2.55,.87-5.15,1.61-7.78,2.18-.9,.2-1.81,.37-2.72,.52-.33,.06-.67,.1-1,.16-.86,.13,1.58-.2,.86-.11-.11,.01-.22,.03-.33,.04-.2,.02-.4,.05-.6,.06-2.6,.21-5.13,2.15-5,5,.11,2.53,2.21,5.22,5,5,3.48-.28,6.97-1.05,10.32-1.99,7.57-2.12,14.9-5.42,21.5-9.69,21.39-13.83,35.19-37.74,38.43-62.82,2.41-18.7-2.21-38.13-12.35-53.99-8.37-13.09-20.7-22.94-35.09-28.77-9.88-4.01-20.84-6.03-31.51-5.52-9.49,.45-19.45,2.79-27.26,8.44-1.87,1.36-3.66,2.82-5.26,4.5-1.8,1.9-2.02,5.21,0,7.07,1.95,1.79,5.15,2.02,7.07,0h0Z" style="fill:#e0e0e0;"></path><path d="M610.36,272.52s-.09,.09-.26,.27c-.18,.17-.47,.41-.9,.65-.85,.46-2.42,.89-4.26,.17-.88-.37-1.85-.98-2.48-2.02-.63-1.02-.85-2.42-.51-3.8,.17-.69,.48-1.38,.94-1.99,.48-.6,1.05-1.13,1.64-1.69,1.18-1.11,2.53-2.19,4.01-3.26,2.97-2.13,6.59-4.07,10.8-5.49,4.21-1.44,8.97-2.41,14.14-2.83,10.32-.86,22.38,.6,34.47,5.59,6.04,2.48,12.05,5.87,17.71,10.21,5.65,4.34,10.92,9.69,15.32,15.99,4.36,6.32,7.97,13.49,10.53,21.27,2.53,7.78,4.01,16.17,4.1,24.81,.03,4.32-.29,8.7-1.03,13.06-.29,2.19-.82,4.36-1.26,6.55-.28,1.08-.56,2.17-.85,3.26l-.44,1.63-.51,1.61c-2.67,8.64-6.72,17.05-12.05,24.8-2.65,3.89-5.72,7.52-9.01,10.99-3.3,3.46-7.02,6.57-10.93,9.43-7.87,5.7-16.97,9.91-26.63,12.38-1.83,.46-3.67,.86-5.54,1.14-.93,.14-1.87,.25-2.8,.33-.98,.08-2.01-.18-2.82-.74-1.62-1.11-2.59-3.05-2.51-5.01,.06-.98,.45-1.94,1.08-2.68,.62-.75,1.45-1.31,2.34-1.66,.89-.38,1.88-.43,2.77-.53h.13c-.03,.19,.18-.46,.07,.5h-.05l-.05,.02-.17,.03-.34,.05-.34,.05-.17,.02c-.05,0,0,0-.15,0,.04-.01-.43,.03-.07-.5l.06-.02h.07c.46-.09,.91-.14,1.36-.23,1.79-.33,3.58-.68,5.33-1.16,1.75-.47,3.49-.99,5.19-1.6,.85-.31,1.7-.6,2.54-.93,.43-.17,.83-.32,1.23-.51l.3-.14,.08-.04,.04-.02h.03c.14,.15-.27-.39,.34,.34-.23,.22-.07,.06-.12,.12h-.03l-.04,.03-.08,.04-.61,.29-.22-.46c2.88-1.38,5.82-2.61,8.48-4.3,2.69-1.63,5.25-3.45,7.83-5.21l.29,.42-.5,.34-.06,.04h0l-.02,.02c-.73-.64-.09-.33-.29-.42l.03-.02,.03-.02,.12-.09,.25-.17c.33-.23,.62-.49,.94-.74,.62-.52,1.25-1.02,1.84-1.57,1.19-1.08,2.41-2.14,3.53-3.28,2.27-2.24,4.37-4.67,6.31-7.11l.41,.28-.2,.3-.1,.15-.03,.04h0c-.18-.03,.41,.1-.44-.04-.02-.3,.01-.13,.02-.22l.02-.03,.05-.08,.42-.6,.83-1.17c.55-.78,1.12-1.55,1.65-2.33,1.06-1.58,2.06-3.19,2.99-4.82,.95-1.62,1.8-3.29,2.61-4.98,.82-1.67,1.65-3.33,2.36-5.03l.45,.19-.14,.32-.02,.04v.02h-.01c-.19-.05,.43,.12-.46-.05,0-.17,.02-.12,.01-.14l.03-.09,.07-.16,.26-.64,.51-1.29c.33-.86,.65-1.72,.95-2.58,.6-1.72,1.15-3.46,1.64-5.19,.51-1.73,.84-3.49,1.25-5.23,.2-.86,.38-1.74,.56-2.61,.18-.87,.34-1.73,.38-2.59l.47,.02-.02,.44v.13c0-.29-.82,.13-.47-.03v-.05l.02-.22c.02-.3,.04-.59,.07-.9,.07-.59,.13-1.17,.18-1.76,.12-1.17,.17-2.34,.23-3.5,.15-2.33,.12-4.64,.02-6.93-.06-1.14-.13-2.28-.25-3.41l-.17-1.69-.1-.84v-.11l-.02-.06v-.03c-.4,.03,.53-.12,.44-.06l.03,.22,.06,.42v.06c-.18,.05,.43-.06-.42,.14-.03-.09-.02-.06-.02-.08l-.02-.11-.03-.21-.07-.42-.14-.83-.27-1.65c-.19-1.1-.42-2.18-.67-3.26-.99-4.31-2.32-8.44-3.95-12.36l-.07-.19v-.04c-.14-.14,.31-.4,.27-.27,.06,.02,.12,.12,.12,.13v.02l.05,.09,.16,.37,.08,.19s.02,.01,.03,.15c.19,0-.34,.29-.4,.06l-.02-.04-.04-.09-.16-.36-.65-1.44c-.41-.97-.92-1.88-1.38-2.81-.47-.92-.94-1.84-1.41-2.76-.5-.9-1.01-1.78-1.53-2.65-1.05-1.73-2.15-3.41-3.32-5.01l-.88-1.19-.03-.04c-.26-.31,.51-.32,.32-.24l.02,.02,.06,.07,.11,.15,.23,.29,.11,.15,.06,.08,.04,.05c-.61,.48-.19,.11-.33,.22l-.02-.02-.23-.29c-.61-.76-1.23-1.51-1.87-2.24-1.27-1.46-2.54-2.88-3.87-4.21-1.31-1.35-2.75-2.53-4.12-3.74-.34-.31-.7-.59-1.05-.88l-.27-.22-.14-.11-.02-.02c-.14,.2,.04-.5,.22-.29l.04,.03,.07,.05,.27,.21,.07,.05,.04,.03,.02,.02c.14-.24-.07,.47-.22,.29l-.15-.11c-.73-.53-1.44-1.08-2.17-1.59-1.45-1.02-2.92-1.97-4.4-2.85-1.47-.9-2.99-1.65-4.47-2.42-.74-.39-1.48-.76-2.23-1.1l-1.12-.51c-.19-.08-.37-.16-.56-.26l-.04-.02-.03-.02c.07,.09-.21-.14,.05-.31,.16,0,.11,.02,.16,.03l.15,.06,.15,.07,.08,.04,.05,.03s.05-.01,.08,.17l-.32-.03s.05,.12,0,.08l-.05-.03s-.09-.05-.14-.07l-.3-.13-.62-.24-1.24-.44c-.83-.28-1.65-.55-2.47-.82-1.62-.54-3.22-1.06-4.81-1.46-1.58-.42-3.14-.77-4.67-1.07-.77-.14-1.53-.27-2.28-.41-.36-.07-.75-.09-1.12-.12l-.28-.03h-.14l-.04-.02h-.03s-.12-.07-.11-.12c-.01-.03,.02-.13,.08-.15,.06-.02,.04-.01,.05-.01h.09l.56,.02v.27c-.82-.03-1.6-.15-2.37-.25-.76-.1-1.51-.15-2.26-.2-1.49-.09-2.92-.14-4.31-.14-1.39-.02-2.73,.08-4.02,.16-1.3,.05-2.53,.18-3.74,.33l-.02-.22,.51-.05,.25-.02h.06s.07-.04-.03,.02c-.02,.03-.06,.04,0,.15,.1,.06,.07,.02,.07,.03h-.14c-.33,.03-.65,.08-.97,.14-.64,.1-1.26,.21-1.86,.33-1.2,.23-2.33,.49-3.39,.78-1.06,.27-2.03,.64-2.97,.93-.94,.28-1.81,.62-2.63,.95l-.06-.15,.42-.16,.21-.08,.11-.04c-.05-.1,.14,.13,.07,.13h-.02v.02h-.04l-.05,.03c-.27,.11-.53,.21-.78,.32-.5,.23-.97,.46-1.42,.68-.9,.46-1.7,.91-2.41,1.34-.71,.43-1.34,.84-1.89,1.23-.27,.2-.56,.36-.75,.57-.03,.03-.01,.05-.04,.02,0,0,.05-.01,.07-.03,.06-.03,.11-.08,.16-.12,.1-.1,.17-.21,.23-.32l.07,.03c-.24,.37-.59,.53-.87,.74-.29,.18-.5,.42-.71,.61-.41,.39-.74,.7-.99,.94-.51,.48-.72,.67-.72,.67,0,0,.2-.21,.7-.69,.25-.24,.57-.56,.98-.95,.21-.19,.41-.44,.71-.62,.27-.2,.63-.39,.83-.72l.07,.03c-.06,.12-.14,.24-.24,.35-.05,.05-.11,.1-.18,.14-.04,.02-.07,.04-.13,.04-.11-.07-.02-.14-.01-.16,.22-.24,.49-.39,.76-.59,.55-.4,1.17-.81,1.88-1.25,.71-.44,1.51-.9,2.41-1.36,.45-.23,.92-.46,1.43-.7l.78-.32,.05-.02h.02v-.02h0s.03,.04,.03,.05c-.09-.05,.06,.19,.03,.09l-.1,.04-.2,.08-.42,.16-.06-.15c.82-.33,1.68-.68,2.63-.97,.94-.29,1.91-.67,2.98-.95,1.06-.29,2.19-.56,3.4-.79,.6-.12,1.22-.23,1.86-.34,.32-.05,.65-.11,.98-.13h.16s-.02-.04,.08,.02c.07,.11,.02,.12,0,.15-.12,.06-.06,.02-.09,.03h-.06l-.25,.03-.51,.05-.02-.22c1.19-.15,2.45-.29,3.74-.35,1.3-.08,2.64-.18,4.03-.17,1.39,0,2.84,.03,4.33,.12,.74,.05,1.51,.09,2.28,.2,.77,.09,1.54,.21,2.33,.24v.27l-.57-.02h-.06c-.03-.06,.04-.13-.02-.14,.03,0,.03-.05,.03-.11,0-.03,0,0,.01-.02h.03l.14,.02,.28,.02c.38,.04,.76,.05,1.14,.12,.75,.13,1.52,.27,2.29,.4,1.54,.3,3.11,.65,4.7,1.06,1.6,.4,3.2,.91,4.83,1.45,.81,.27,1.64,.54,2.47,.82,.41,.15,.83,.29,1.25,.44l.63,.24,.31,.14c.05,.03,.1,.05,.16,.08l.09,.06s.12,.13,.12,.21l-.17-.02s-.09,.06-.11,.1h-.01l-.05-.04-.13-.06-.13-.05h-.03s-.01,.04,.01-.15c-.02-.02,.05-.05,.09-.13,.02-.03,0,0,.02-.01h.03c.17,.1,.36,.18,.55,.26l1.12,.51c.75,.34,1.5,.7,2.24,1.1,1.49,.77,3.02,1.52,4.5,2.42,1.49,.88,2.97,1.84,4.43,2.86,.73,.51,1.45,1.06,2.18,1.59l.13,.09c-.09,.08-.22,.32-.22,.28h-.01l-.03-.03-.06-.05-.27-.21-.07-.05s-.03,0-.02-.03c.08-.08,.24-.29,.22-.27h.01l.13,.11,.26,.21c.36,.28,.71,.57,1.06,.88,1.38,1.21,2.83,2.39,4.15,3.75,1.34,1.34,2.62,2.76,3.89,4.23,.64,.73,1.26,1.48,1.88,2.25l.23,.28v.02s.11-.03-.28,.23c-.02,.03-.02,0-.03-.01l-.05-.07-.11-.15-.23-.29-.11-.14-.06-.07h-.01c-.11-.02,.36-.08,.31-.26l.02,.03,.88,1.19c1.18,1.6,2.29,3.29,3.35,5.03,.53,.87,1.04,1.76,1.54,2.66,.47,.92,.94,1.84,1.42,2.77,.47,.93,.98,1.85,1.39,2.82l.65,1.44,.16,.36,.04,.09s.01,.03,0,0c-.23-.28-.29,.2-.38,.09,0,.11,0,.08,0,.06l-.07-.18-.15-.36-.04-.09v-.02s.01,.15,.12,.01c-.08,.1,.38,.03,.26-.17,0-.02,0,0,0,0l.07,.18c1.63,3.93,2.98,8.09,3.98,12.42,.25,1.08,.48,2.17,.67,3.28l.28,1.66,.14,.83,.07,.42,.03,.21,.02,.1c-.09,.04,.2-.05-.2,.06-.48,.02-.13,.01-.24,0v-.05l-.06-.41-.03-.2c-.12,0,.68-.09,.44-.05v.07l.02,.1,.1,.84,.17,1.7c.12,1.14,.19,2.28,.25,3.43,.1,2.3,.14,4.63-.01,6.97-.06,1.17-.1,2.35-.22,3.52-.05,.59-.11,1.18-.18,1.77-.03,.28-.05,.58-.07,.87l-.02,.22v.06c.35-.16-.47,.32-.47,0v-.15l.02-.45,.47,.02c-.04,.9-.21,1.79-.39,2.66-.18,.87-.36,1.74-.56,2.61-.42,1.74-.75,3.52-1.26,5.26-.49,1.75-1.04,3.49-1.64,5.22-.3,.87-.62,1.73-.95,2.6l-.51,1.29-.26,.64-.07,.16-.03,.08s0,.02,0,0c-.04-.05-.28-.06-.18-.08-.19-.06-.3-.11-.26-.1h0v-.02l.02-.04,.14-.32,.45,.19c-.72,1.71-1.54,3.38-2.37,5.06-.8,1.69-1.66,3.37-2.62,5-.94,1.64-1.94,3.26-3.01,4.85-.54,.79-1.11,1.56-1.66,2.35l-.84,1.18-.4,.58-.05,.07h0c.06-.04-.36-.12-.14-.14-.38-.14-.26-.13-.27-.12h0l.02-.04,.1-.15,.2-.3,.41,.28c-1.99,2.52-4.07,4.92-6.37,7.19-1.13,1.15-2.35,2.21-3.55,3.3-.59,.55-1.23,1.06-1.85,1.58-.32,.25-.63,.53-.97,.76l-.25,.18-.12,.09-.03,.02s-.02,.02,0,0c-.36-.34,.23,.13-.29-.42-.02,.01,0,0,0,0h0l.06-.05,.5-.34,.29,.42c-2.57,1.76-5.14,3.58-7.85,5.22-2.69,1.71-5.63,2.94-8.52,4.33l-.22-.46,.61-.29,.08-.04,.04-.02h.03s.12-.13-.1,.09c.46,.28,.29,.47,.33,.36h-.03l-.04,.03-.08,.04-.31,.14c-.41,.2-.85,.36-1.26,.53-.84,.34-1.7,.62-2.55,.94-1.71,.61-3.46,1.14-5.23,1.61-1.76,.49-3.57,.84-5.38,1.18-.45,.09-.91,.15-1.36,.22h-.05s0,.11-.02-.13c0-.22-.05-.06-.03-.26-.06-.18-.02-.08-.03-.11h.07l.17-.03,.34-.04,.34-.05,.17-.02h.04s0-.06,.04,.17c.04,.15-.01,.13,.01,.3,.04,.07,0,.02,.01,.03h-.08c-.93,.12-1.81,.16-2.63,.51-1.64,.62-3,2.11-3.09,3.89-.09,1.75,.82,3.56,2.28,4.54,.73,.5,1.61,.72,2.49,.65,.92-.08,1.85-.19,2.77-.32,1.84-.28,3.67-.67,5.49-1.13,9.6-2.45,18.64-6.64,26.46-12.3,3.89-2.84,7.58-5.93,10.86-9.37,3.27-3.44,6.33-7.05,8.96-10.92,5.3-7.7,9.33-16.07,11.99-24.66l.51-1.6,.43-1.62c.28-1.08,.56-2.16,.85-3.24,.44-2.18,.97-4.33,1.26-6.51,.73-4.34,1.06-8.69,1.03-12.98-.07-8.59-1.55-16.93-4.05-24.68-2.54-7.73-6.12-14.87-10.45-21.16-4.37-6.27-9.6-11.6-15.22-15.92-5.62-4.33-11.6-7.7-17.61-10.18-12.03-4.99-24.03-6.47-34.31-5.64-5.15,.41-9.9,1.36-14.09,2.78-4.2,1.4-7.8,3.32-10.76,5.42-1.48,1.06-2.82,2.13-4,3.23-.58,.55-1.16,1.09-1.63,1.66-.45,.59-.75,1.26-.92,1.93-.34,1.34-.13,2.7,.47,3.7,.6,1.01,1.54,1.63,2.4,1.99,1.8,.72,3.35,.32,4.2-.12,.86-.47,1.17-.9,1.19-.87Z" style="fill:#263238;"></path></g><g><rect x="576.39" y="271.35" width="29.67" height="22.94" transform="translate(-33.9 479.69) rotate(-43.05)" style="fill:#e0e0e0;"></rect><path d="M609.89,281.07s-.12-.1-.32-.31c-.22-.23-.5-.52-.86-.89-.77-.81-1.85-1.94-3.22-3.37-2.77-2.92-6.69-7.06-11.41-12.05h.3c-6.16,5.78-13.62,12.77-21.65,20.29,0,.08,.02-.69,.01-.36h.01l.02,.03,.03,.04,.07,.07,.13,.14,.26,.28,.53,.56,1.05,1.12c.69,.74,1.38,1.48,2.07,2.21,1.37,1.46,2.71,2.9,4.02,4.31,2.62,2.81,5.12,5.5,7.45,8.01h-.33c6.43-5.95,11.85-10.95,15.69-14.51,1.91-1.75,3.43-3.14,4.5-4.12,.51-.46,.91-.82,1.21-1.09,.28-.25,.43-.38,.44-.38,.01,0-.11,.13-.37,.38-.28,.27-.66,.64-1.14,1.1-1.04,.99-2.52,2.4-4.38,4.17-3.84,3.62-9.24,8.72-15.64,14.77l-.17,.16-.16-.17c-2.35-2.5-4.85-5.18-7.48-7.98-1.31-1.4-2.66-2.84-4.02-4.3-.68-.73-1.37-1.47-2.07-2.21l-1.05-1.12-.53-.56-.26-.28-.13-.14-.07-.07-.03-.04-.02-.02h-.01c-.01,.31,.01-.46,.01-.39,8.06-7.5,15.53-14.46,21.71-20.22l.16-.15,.15,.16c4.69,5.09,8.59,9.32,11.34,12.3,1.32,1.45,2.36,2.59,3.11,3.41,.33,.37,.6,.67,.8,.89,.18,.2,.26,.3,.25,.3Z" style="fill:#263238;"></path></g><rect x="600.7" y="262.88" width="9.87" height="12.96" transform="translate(-20.83 485.9) rotate(-43.05)" style="fill:#455a64;"></rect><path d="M618.69,266.63c-.16,.03-.49-2.3-1.88-4.77-1.36-2.49-3.15-4.01-3.03-4.13,.06-.11,2.07,1.29,3.49,3.88,1.44,2.58,1.55,5.03,1.42,5.02Z" style="fill:#263238;"></path><path d="M628.66,263.64c-.16-.03,.31-2.33-.16-5.12-.43-2.8-1.6-4.84-1.46-4.92,.09-.09,1.52,1.91,1.97,4.83,.48,2.92-.24,5.26-.36,5.21Z" style="fill:#263238;"></path><path d="M639.69,262.57c-.16-.05,.64-2.26,.59-5.09-.02-2.84-.89-5.02-.73-5.07,.11-.07,1.23,2.11,1.26,5.07,.06,2.95-1,5.17-1.11,5.1Z" style="fill:#263238;"></path><path d="M650.97,263.71c-.14-.08,1.1-2.08,1.62-4.86,.56-2.78,.17-5.1,.33-5.12,.12-.05,.76,2.32,.18,5.22-.55,2.9-2.04,4.85-2.13,4.76Z" style="fill:#263238;"></path><path d="M662.13,266.86c-.13-.1,1.42-1.87,2.39-4.54,1-2.65,.99-5,1.15-5,.12-.03,.38,2.41-.66,5.18-1.02,2.78-2.8,4.46-2.88,4.36Z" style="fill:#263238;"></path><path d="M673.39,272.21c-.11-.12,1.66-1.66,2.98-4.17,1.35-2.49,1.66-4.82,1.82-4.79,.13-.01,.05,2.44-1.36,5.04-1.38,2.61-3.38,4.04-3.44,3.93Z" style="fill:#263238;"></path><path d="M681.01,277.52c-.1-.13,1.84-1.45,3.46-3.79,1.64-2.31,2.22-4.59,2.37-4.54,.13,0-.24,2.43-1.95,4.84-1.68,2.43-3.84,3.61-3.88,3.49Z" style="fill:#263238;"></path><path d="M687.72,284.03c-.07-.15,2.11-1.03,4.18-2.97,2.09-1.91,3.14-4.02,3.28-3.94,.12,.03-.75,2.32-2.93,4.32-2.16,2.02-4.51,2.71-4.53,2.59Z" style="fill:#263238;"></path><path d="M693.82,292.22c-.04-.16,2.27-.59,4.68-2.08,2.43-1.46,3.87-3.32,4-3.21,.11,.05-1.2,2.13-3.73,3.66-2.52,1.55-4.96,1.76-4.96,1.64Z" style="fill:#263238;"></path><path d="M698.73,301.79c-.02-.16,2.33-.31,4.91-1.49,2.59-1.15,4.26-2.81,4.37-2.69,.11,.07-1.45,1.96-4.15,3.16-2.69,1.23-5.14,1.14-5.12,1.01Z" style="fill:#263238;"></path><path d="M703.22,313.65c-.02-.16,2.33-.31,4.91-1.49,2.59-1.15,4.26-2.81,4.37-2.69,.11,.07-1.45,1.96-4.15,3.16-2.69,1.23-5.14,1.14-5.12,1.01Z" style="fill:#263238;"></path><path d="M705.14,324.3c.02-.16,2.33,.29,5.12-.21,2.8-.46,4.82-1.66,4.9-1.51,.09,.09-1.89,1.54-4.81,2.03-2.91,.52-5.26-.18-5.21-.3Z" style="fill:#263238;"></path><path d="M705.13,337.57c.04-.16,2.28,.55,5.11,.37,2.83-.15,4.98-1.1,5.04-.95,.08,.1-2.06,1.31-5.01,1.47-2.95,.18-5.21-.78-5.14-.89Z" style="fill:#263238;"></path><path d="M702.87,349.58c.08-.14,2.07,1.1,4.86,1.64,2.78,.57,5.1,.18,5.12,.35,.05,.12-2.32,.76-5.22,.16-2.9-.56-4.84-2.06-4.76-2.15Z" style="fill:#263238;"></path><path d="M698.91,361.25c.11-.12,1.71,1.61,4.25,2.87,2.53,1.28,4.87,1.52,4.84,1.69,.01,.13-2.44,.12-5.08-1.22-2.65-1.31-4.13-3.27-4.02-3.33Z" style="fill:#263238;"></path><path d="M692.38,373.27c.13-.1,1.51,1.8,3.9,3.33,2.37,1.56,4.66,2.07,4.62,2.22,0,.13-2.44-.16-4.9-1.79-2.48-1.6-3.73-3.71-3.61-3.77Z" style="fill:#263238;"></path><path d="M685.51,382.24c.14-.08,1.27,1.98,3.43,3.81,2.14,1.86,4.35,2.66,4.29,2.81-.02,.13-2.39-.48-4.63-2.41-2.25-1.91-3.21-4.17-3.09-4.21Z" style="fill:#263238;"></path><path d="M676.34,391.3c.15-.06,.87,2.18,2.64,4.4,1.75,2.23,3.76,3.44,3.67,3.58-.04,.12-2.26-.93-4.08-3.25-1.85-2.31-2.36-4.71-2.23-4.72Z" style="fill:#263238;"></path><path d="M665.86,397.96c.16-.01,.22,2.34,1.3,4.96,1.05,2.63,2.65,4.36,2.53,4.46-.07,.1-1.91-1.52-3.01-4.27-1.13-2.73-.95-5.18-.82-5.15Z" style="fill:#263238;"></path><path d="M650.6,403.67c.16-.01,.22,2.34,1.3,4.96,1.05,2.63,2.65,4.36,2.53,4.46-.07,.1-1.91-1.52-3.01-4.27-1.13-2.73-.95-5.18-.82-5.15Z" style="fill:#263238;"></path><path d="M644.5,400.32v19.16l-6.99,.53-5.4-15.03,11.85-4.66" style="fill:#455a64;"></path><polygon points="593.9 296.02 596.69 298.91 607.16 288.62 604.62 286 593.9 296.02" style="opacity:.3;"></polygon></g></g></g><g id="freepik--Bug--inject-65"><g><g><path d="M543.1,213.16c3.37-.57,6.39-2.54,8.38-5.3,2.13-2.96,2.77-6.82,1.99-10.35-.39-1.76-3.08-1.01-2.7,.74,.62,2.83,0,5.85-1.71,8.2-1.59,2.19-4.07,3.57-6.71,4.02-.75,.13-1.16,1.04-.98,1.72,.22,.79,.97,1.1,1.72,.98h0Z" style="fill:#060606;"></path><path d="M544.23,222.83c5.69-2.95,12.12-4.11,18.49-3.46,.75,.08,1.4-.7,1.4-1.4,0-.82-.64-1.32-1.4-1.4-6.85-.7-13.79,.68-19.9,3.85-1.6,.83-.19,3.24,1.41,2.41h0Z" style="fill:#060606;"></path><path d="M543.52,233.66c5.6,.69,10.77,4.1,13.72,8.89,.94,1.53,3.36,.13,2.41-1.41-3.52-5.7-9.51-9.45-16.14-10.27-.75-.09-1.4,.71-1.4,1.4,0,.83,.65,1.31,1.4,1.4h0Z" style="fill:#060606;"></path><path d="M518.64,209.19c-2.64-.45-5.12-1.83-6.71-4.02-1.7-2.35-2.33-5.37-1.71-8.2,.39-1.75-2.31-2.5-2.7-.74-.78,3.53-.13,7.39,1.99,10.35,1.99,2.77,5.01,4.74,8.38,5.3,.74,.13,1.51-.2,1.72-.98,.18-.67-.23-1.59-.98-1.72h0Z" style="fill:#060606;"></path><path d="M518.18,219.14c-6.11-3.16-13.05-4.54-19.9-3.85-.75,.08-1.4,.59-1.4,1.4,0,.7,.64,1.47,1.4,1.4,6.37-.65,12.8,.52,18.49,3.47,1.6,.83,3.01-1.59,1.41-2.41h0Z" style="fill:#060606;"></path><path d="M517.47,229.88c-6.63,.82-12.62,4.57-16.14,10.27-.95,1.54,1.47,2.94,2.41,1.41,2.95-4.79,8.12-8.19,13.72-8.89,.75-.09,1.4-.58,1.4-1.4,0-.68-.64-1.49-1.4-1.4h0Z" style="fill:#060606;"></path><path d="M520.26,204.84s-.98-10.02,10.33-10.02,10.82,9.84,10.82,9.84l-21.15,.19Z" style="fill:#060606;"></path><path d="M519.92,191.34c.11,.89,.32,1.68,.69,2.5,.32,.7,.77,1.35,1.29,1.91,1.01,1.11,2.42,1.91,3.89,2.22,.71,.15,1.55-.21,1.72-.98,.16-.71-.21-1.55-.98-1.72-.29-.06-.58-.14-.86-.25-.06-.02-.13-.07-.2-.08,.19,.08,.24,.1,.14,.06-.04-.02-.08-.04-.12-.05-.13-.06-.25-.13-.38-.2-.12-.07-.25-.14-.36-.22-.07-.05-.14-.09-.21-.14-.04-.03-.25-.17-.06-.04,.19,.13-.02-.02-.06-.05-.05-.05-.11-.09-.16-.14-.12-.1-.23-.21-.33-.33-.1-.11-.19-.22-.29-.33-.19-.23,.13,.19,.03,.04-.04-.06-.08-.12-.13-.18-.17-.25-.32-.52-.46-.79-.02-.04-.05-.17-.09-.2,.08,.19,.1,.23,.06,.13-.02-.04-.03-.08-.05-.12-.05-.14-.1-.27-.14-.41-.04-.14-.08-.28-.11-.42-.02-.08-.04-.17-.05-.26-.02-.1-.05-.39,0,.03-.05-.38-.12-.7-.41-.99-.24-.24-.64-.43-.99-.41-.36,.02-.74,.13-.99,.41-.23,.25-.46,.63-.41,.99h0Z" style="fill:#060606;"></path><path d="M538.06,191.34c.06-.46-.02,.07-.04,.19-.03,.14-.07,.28-.11,.42-.04,.15-.1,.3-.15,.45-.02,.05-.1,.29-.03,.07,.07-.22-.01,.02-.04,.07-.13,.27-.28,.54-.45,.79-.04,.06-.08,.12-.12,.18-.14,.21,.14-.17,.03-.04-.1,.12-.2,.24-.31,.36-.1,.1-.2,.2-.3,.3-.08,.07-.28,.19-.32,.28,.16-.12,.2-.15,.11-.09-.03,.03-.07,.05-.1,.08-.06,.04-.12,.08-.18,.12-.12,.08-.24,.15-.36,.22-.14,.08-.27,.15-.41,.22-.05,.02-.28,.11-.07,.03,.22-.08-.02,0-.07,.03-.29,.11-.59,.2-.9,.26-.72,.16-1.2,1.03-.98,1.72,.24,.75,.95,1.14,1.72,.98,1.47-.32,2.87-1.12,3.89-2.22,.51-.55,.96-1.19,1.27-1.87,.38-.83,.6-1.64,.71-2.54,.04-.33-.19-.77-.41-.99-.24-.24-.64-.43-.99-.41-.36,.02-.74,.13-.99,.41-.27,.29-.36,.6-.41,.99h0Z" style="fill:#060606;"></path></g><g><path d="M529.16,208.42c0-.41,.11-.74,.27-1.02l-9.54-.18s-9.54,7.66-7.41,22.47c1.93,13.41,9.17,17.86,16.67,17.75v-39.02Z" style="fill:#060606;"></path><path d="M542.5,207.22l-9.54,.18c.16,.28,.27,.61,.27,1.02v39.02c7.5,.11,14.74-4.34,16.67-17.75,2.13-14.82-7.41-22.47-7.41-22.47Z" style="fill:#060606;"></path></g></g></g><g id="freepik--Character--inject-65"><g><g><g><path d="M105.93,152.24c-.61-9.12-8.13-16.23-17.26-16.36h-.91c-9.8,.43-14.9,9-14.18,18.78l1.02,16.38,.55,25.53,21.29,3.8,.79-14.99s9.43-1.34,9.67-10.75c.12-4.54-.4-13.92-.97-22.4Z" style="fill:#ffbf9d;"></path><path d="M97.31,185.37s-6.01,.28-12.28-3.77c0,0,2.67,7.03,12.07,6.31l.21-2.54Z" style="fill:#ff9a6c;"></path><path d="M102.27,161.4c.02,.71-.57,1.31-1.31,1.34-.74,.03-1.35-.52-1.37-1.23-.02-.71,.57-1.31,1.31-1.34,.74-.03,1.35,.52,1.37,1.23Z" style="fill:#263238;"></path><path d="M103.84,156.82c-.17,.17-1.18-.59-2.62-.61-1.44-.04-2.52,.69-2.67,.51-.08-.08,.1-.39,.56-.72,.46-.33,1.24-.64,2.14-.63,.9,.02,1.65,.36,2.08,.7,.44,.35,.59,.67,.5,.74Z" style="fill:#263238;"></path><path d="M89.29,161.64c.02,.71-.57,1.31-1.31,1.34-.74,.03-1.35-.52-1.37-1.23-.02-.71,.57-1.31,1.31-1.34,.74-.03,1.35,.52,1.37,1.23Z" style="fill:#263238;"></path><path d="M89.63,156.9c-.17,.17-1.18-.59-2.62-.61-1.44-.04-2.52,.69-2.67,.51-.08-.08,.1-.39,.56-.72,.46-.33,1.24-.64,2.14-.63,.9,.02,1.65,.36,2.09,.7,.44,.35,.59,.67,.5,.74Z" style="fill:#263238;"></path><path d="M94.73,167.69c0-.08,.9-.23,2.35-.39,.37-.03,.72-.1,.79-.35,.09-.27-.06-.67-.23-1.1-.34-.9-.69-1.84-1.05-2.83-1.46-4.02-2.52-7.33-2.35-7.39,.16-.06,1.48,3.16,2.94,7.18,.35,.99,.69,1.94,1.01,2.84,.13,.42,.37,.9,.17,1.45-.1,.27-.38,.47-.61,.53-.24,.07-.45,.07-.63,.08-1.47,.06-2.38,.05-2.38-.03Z" style="fill:#263238;"></path><path d="M90.46,168.63c.24-.01,.22,1.56,1.55,2.69,1.33,1.14,3,.98,3.01,1.2,.02,.1-.38,.3-1.08,.31-.69,.01-1.7-.22-2.51-.91-.81-.69-1.15-1.61-1.2-2.26-.05-.66,.13-1.04,.24-1.03Z" style="fill:#263238;"></path><path d="M90.07,151.23c-.15,.39-1.59,.19-3.29,.37-1.7,.15-3.08,.63-3.3,.27-.1-.17,.15-.54,.7-.91,.55-.37,1.43-.72,2.45-.82,1.02-.1,1.95,.08,2.56,.34,.62,.26,.93,.57,.87,.76Z" style="fill:#263238;"></path><path d="M103.37,152.62c-.26,.32-1.25-.03-2.45-.06-1.2-.07-2.22,.19-2.44-.16-.1-.17,.06-.5,.51-.8,.44-.3,1.17-.55,2-.51,.82,.04,1.53,.34,1.94,.69,.42,.34,.55,.68,.44,.84Z" style="fill:#263238;"></path><path d="M74.96,163.84c-.04-1.45-1.28-2.62-2.72-2.5-1.76,.14-3.72,1.11-3.66,4.74,.12,6.44,6.11,4.84,6.12,4.65,0-.13,.33-4.2,.26-6.89Z" style="fill:#ffbf9d;"></path><path d="M73.7,168.49s-.11,.08-.3,.17c-.18,.09-.5,.15-.84,.03-.68-.24-1.28-1.31-1.33-2.47-.03-.59,.09-1.15,.28-1.61,.19-.47,.49-.81,.83-.88,.34-.09,.59,.11,.67,.29,.09,.18,.05,.31,.09,.32,.02,.02,.14-.11,.08-.38-.03-.13-.11-.28-.26-.4-.16-.12-.39-.18-.62-.15-.5,.04-.93,.51-1.15,1.02-.25,.51-.39,1.14-.36,1.8,.07,1.3,.75,2.5,1.69,2.75,.45,.11,.83-.03,1.02-.19,.2-.16,.23-.31,.21-.32Z" style="fill:#ff9a6c;"></path></g><g><path d="M70.41,156.9c.37,1.87-.08,4.89,1.59,4.62,3.31-.54,1.96,6.04,3.58,5.53,1.59-.51,3.11-2.29,3.56-6.37,.57-5.18-1.2-9.11,1.36-14.89,1.58-2.27,4.16-3.68,6.92-3.51,2.76,.17,5.3,1.8,6.58,4.24,.45-1.79,1.57-4.44,3.26-5.18,1.69-.73,3.84-.44,5.12,.87s1.47,3.64,.25,5.02c.72,.3,1.63,.06,2.1-.56,0,.85-.38,1.69-1.01,2.26,.68-.11,1.31-.47,1.74-1-.23,.74-.45,1.47-.68,2.21,2.73,.31,5.63-2.11,6.6-4.4,1.46-3.47,.88-7.15-.84-10.5-1.72-3.35-5.1-5.9-8.86-6.19-3.76-.29-7.05,1.22-8.8,4.55-2.29-1.93-7.17-2.96-9.99-1.96-2.82,1-5.03,3.57-5.59,6.51-1.64-.87-3.72-.48-5.26,.56-.13,.09-.25,.18-.37,.27-2.12,1.64-3.16,4.33-2.89,7,.11,1.06,.38,2.17,.52,3.02,.42,2.53,1.12,7.87,1.12,7.87Z" style="fill:#263238;"></path><path d="M105.16,146.56s.09-.04,.23-.15c.15-.11,.36-.28,.59-.54,.47-.51,1.05-1.39,1.31-2.62,.26-1.21,.11-2.86-.92-4.2-.99-1.33-2.76-2.37-4.72-2.26-.97,.05-1.88,.36-2.68,.79-.8,.43-1.48,.98-2.06,1.58-1.16,1.19-1.88,2.53-2.29,3.7-.42,1.18-.54,2.19-.57,2.88,0,.35,0,.62,.01,.8,.01,.18,.02,.28,.03,.28,.08,.01-.14-1.57,.71-3.89,.43-1.14,1.15-2.44,2.29-3.59,1.12-1.13,2.71-2.16,4.56-2.27,1.85-.11,3.54,.88,4.5,2.14,.99,1.27,1.16,2.83,.93,4.01-.22,1.2-.76,2.07-1.19,2.59-.44,.52-.76,.75-.74,.77Z" style="fill:#455a64;"></path><path d="M106.17,149.52s.08-.1,.22-.29c.14-.2,.33-.49,.58-.88,.48-.77,1.21-1.9,1.81-3.43,.29-.77,.55-1.64,.65-2.61,.1-.97,.05-2.03-.29-3.08-.34-1.05-1.02-2.05-1.97-2.8-.94-.74-2.11-1.26-3.37-1.45-1.26-.19-2.52-.05-3.66,.27-1.15,.33-2.19,.83-3.1,1.43-1.83,1.19-3.11,2.83-3.64,4.41-.54,1.58-.4,2.98-.14,3.86,.12,.45,.29,.77,.4,.98,.12,.21,.19,.32,.2,.31,.03-.01-.26-.44-.49-1.32-.22-.87-.32-2.23,.23-3.76,.53-1.52,1.79-3.1,3.59-4.25,1.78-1.14,4.13-1.99,6.58-1.63,1.21,.18,2.34,.68,3.24,1.39,.91,.71,1.56,1.66,1.89,2.66,.34,1,.39,2.04,.31,2.98-.09,.95-.32,1.81-.6,2.57-.57,1.52-1.26,2.66-1.72,3.45-.22,.37-.4,.67-.53,.91-.12,.21-.18,.32-.17,.33Z" style="fill:#455a64;"></path><path d="M73.02,152.96s-.55-.53-1.24-1.52c-.7-.98-1.46-2.51-1.68-4.34-.22-1.83,.16-3.5,.61-4.62,.45-1.13,.9-1.74,.85-1.77-.01,0-.14,.13-.34,.42-.2,.28-.45,.71-.7,1.28-.5,1.12-.93,2.84-.71,4.73,.23,1.89,1.05,3.46,1.8,4.43,.38,.49,.72,.85,.98,1.08,.26,.23,.41,.34,.42,.33Z" style="fill:#455a64;"></path><path d="M78.86,153.28s-.31-.17-.78-.56c-.47-.39-1.1-1.06-1.44-2.08l-.22-.63v.67c0,.91,0,1.95,.01,3.08l.22-.11c-.71-.58-1.38-1.33-1.91-2.22-.67-1.13-1.04-2.36-1.14-3.49-.1-1.14,.05-2.17,.28-3,.47-1.67,1.19-2.53,1.13-2.56,0,0-.05,.04-.13,.15-.08,.1-.19,.26-.33,.46-.26,.41-.6,1.05-.86,1.9-.26,.84-.43,1.9-.34,3.08,.09,1.17,.46,2.45,1.15,3.61,.55,.92,1.25,1.7,1.99,2.29l.22,.18v-.29c-.03-1.13-.05-2.18-.07-3.08l-.21,.04c.39,1.07,1.07,1.74,1.58,2.1,.25,.19,.47,.3,.62,.37,.15,.07,.23,.1,.24,.09Z" style="fill:#455a64;"></path><path d="M81.79,139.98c.05,.04,.41-.88,1.64-1.72,.61-.4,1.43-.76,2.39-.87,.96-.11,2.04,.07,3.05,.54,1.01,.48,1.84,1.19,2.43,1.96,.59,.77,.96,1.58,1.2,2.28,.46,1.41,.44,2.36,.5,2.35,.02,0,.04-.23,.01-.65-.03-.42-.11-1.03-.32-1.76-.22-.72-.58-1.57-1.18-2.37-.6-.81-1.46-1.56-2.51-2.06-1.06-.5-2.2-.68-3.2-.55-1.01,.13-1.86,.52-2.47,.97-.62,.45-1.01,.93-1.24,1.29-.11,.18-.19,.32-.23,.43-.04,.1-.06,.16-.06,.16Z" style="fill:#455a64;"></path><path d="M83.71,135.23c.02,.06,.66-.36,1.82-.53,1.14-.17,2.84,.01,4.33,1,1.49,.99,2.37,2.43,2.83,3.5,.46,1.08,.58,1.81,.63,1.8,.02,0,0-.19-.05-.52-.06-.33-.18-.8-.39-1.36-.42-1.11-1.3-2.62-2.86-3.66-1.56-1.03-3.35-1.19-4.52-.96-.59,.11-1.05,.29-1.35,.44-.3,.16-.45,.27-.44,.28Z" style="fill:#455a64;"></path></g></g><g><path d="M100.72,438.43l-.65,17.57s17.64,6.56,17.84,9.82l-34.11-.03-.12-27.42,17.04,.06Z" style="fill:#263238;"></path><path d="M89.53,454.51c-.66,.18-1.12,.92-.96,1.59,.15,.67,.9,1.14,1.57,.97,.66-.17,1.24-1.04,1.01-1.69-.23-.65-1.14-1.15-1.74-.83" style="fill:#e0e0e0;"></path><path d="M83.8,465.78l.1-2.76,32.67,1.06s1.52,.66,1.35,1.73l-34.11-.03Z" style="fill:#455a64;"></path><path d="M100.63,455.82c0,.17-.84,.24-1.66,.78-.83,.51-1.26,1.24-1.41,1.17-.15-.03,.1-1.03,1.1-1.66,1-.64,2.01-.44,1.97-.29Z" style="fill:#fff;"></path><path d="M104.2,457.31c.04,.16-.68,.44-1.25,1.15-.59,.69-.73,1.45-.9,1.44-.16,.03-.27-.95,.45-1.81,.71-.87,1.69-.94,1.7-.78Z" style="fill:#fff;"></path><path d="M106.23,461.59c-.15,.04-.38-.8,.05-1.71,.42-.92,1.21-1.27,1.28-1.14,.09,.14-.41,.63-.75,1.38-.36,.75-.41,1.45-.57,1.46Z" style="fill:#fff;"></path><path d="M100.33,451.8c-.07,.15-.83-.08-1.78-.02-.94,.04-1.68,.36-1.76,.22-.1-.12,.62-.74,1.73-.8,1.11-.07,1.89,.46,1.81,.59Z" style="fill:#fff;"></path></g><g><path d="M61.58,440.03l-1.36,21.23,3.77,17.1c.27,1.23-.56,2.44-1.81,2.62h0c-.7,.1-1.4-.13-1.89-.64-3.12-3.24-14.52-15.23-14.33-16.78,.22-1.79-.05-22.49-.05-22.49l15.67-1.04Z" style="fill:#263238;"></path><path d="M62.18,480.99l-16.16-18.86-.04,.9c-.03,.78,.21,1.54,.69,2.16,1.28,1.64,4.93,6.1,13.56,15.16,.5,.53,1.24,.77,1.95,.64h0Z" style="fill:#455a64;"></path><g style="opacity:.6;"><path d="M50.66,455.45c.52,.39,.66,1.2,.29,1.74-.37,.53-1.19,.68-1.72,.3-.52-.38-.72-1.35-.3-1.84,.43-.49,1.4-.61,1.82-.12" style="fill:#fff;"></path></g><path d="M57.7,471.5c.12,.06,.64-1.03,1.93-1.58,1.27-.59,2.43-.24,2.47-.37,.02-.05-.24-.23-.74-.32-.49-.09-1.21-.05-1.92,.26-.71,.31-1.22,.82-1.48,1.25-.27,.43-.31,.74-.26,.76Z" style="fill:#fff;"></path><path d="M59.1,474.41c.1,.1,.81-.57,1.92-.84,1.11-.29,2.05-.05,2.09-.18,.07-.11-.94-.6-2.2-.27-1.27,.31-1.91,1.23-1.8,1.29Z" style="fill:#fff;"></path><path d="M55.04,467.74c.1,.1,1.18-.92,2.88-1.49,1.68-.6,3.17-.46,3.18-.61,.04-.11-1.53-.47-3.34,.16-1.81,.62-2.82,1.87-2.72,1.93Z" style="fill:#fff;"></path><path d="M54.91,461.25c.05,.13,1.25-.31,2.78-.31,1.53-.01,2.73,.42,2.78,.29,.06-.1-1.13-.77-2.78-.76-1.64,0-2.84,.67-2.77,.77Z" style="fill:#fff;"></path><path d="M55.15,455.01c.06,.13,1.27-.53,2.88-.39,1.61,.1,2.71,.94,2.79,.82,.04-.04-.18-.32-.66-.62-.47-.3-1.22-.6-2.09-.67-.87-.06-1.65,.12-2.17,.34-.52,.23-.78,.47-.75,.52Z" style="fill:#fff;"></path><path d="M58.04,453.43s.09-.28,.06-.8c-.03-.52-.14-1.28-.55-2.13-.21-.4-.43-.92-1.01-1.23-.29-.15-.73-.12-.99,.15-.26,.26-.35,.61-.38,.95-.03,1.35,1.07,2.7,2.58,2.96,1.52,.23,2.93-.58,3.58-1.72,.14-.3,.25-.66,.1-1.03-.15-.37-.57-.53-.88-.49-.64,.07-1.05,.42-1.43,.67-.76,.56-1.24,1.16-1.52,1.59-.28,.44-.38,.71-.36,.72,.07,.06,.58-1.02,2.06-2.04,.37-.23,.8-.53,1.26-.55,.22-.01,.41,.08,.48,.26,.07,.17,.02,.44-.11,.67-.55,.93-1.84,1.67-3.12,1.46-1.27-.2-2.24-1.39-2.23-2.48,0-.26,.09-.52,.23-.67,.14-.15,.35-.18,.55-.09,.41,.18,.67,.64,.88,1.02,.83,1.6,.69,2.8,.78,2.78Z" style="fill:#fff;"></path></g><g><path d="M115.67,289.92s2.82,9.95,2.16,22.17c-.25,4.73-15.44,141.33-15.44,141.33l-19.32-1.74,3.34-127.72-.81,.72s-11.51,53.73-12.27,62.23c-.69,7.64-9.87,68.97-9.87,68.97l-18.75-.89,4.25-77.54,5.69-70.4,2.28-20.51,58.75,3.36Z" style="fill:#263238;"></path><path d="M82.69,312.95s.31,.21,.91,.49c.6,.27,1.49,.68,2.68,.87,.6,.09,1.27,.11,1.98-.03,.7-.14,1.45-.46,2.05-1.04,.6-.58,.97-1.39,1.21-2.22,.23-.84,.36-1.71,.52-2.6,.6-3.56,.99-6.8,1.21-9.16,.11-1.18,.18-2.13,.21-2.79,.03-.66,.03-1.03,0-1.03-.03,0-.09,.36-.18,1.01-.1,.75-.21,1.68-.35,2.77-.3,2.34-.74,5.57-1.34,9.11-.31,1.75-.5,3.54-1.57,4.6-1.07,1.05-2.58,1.19-3.69,1.05-1.15-.14-2.04-.5-2.66-.72-.62-.23-.96-.35-.98-.32Z" style="fill:#455a64;"></path><path d="M88.78,296.16s-.14-.11-.45-.12c-.3-.02-.75,.09-1.19,.41-.42,.33-.87,.91-.87,1.68-.02,.79,.61,1.55,1.42,1.81,.8,.29,1.77,.09,2.24-.54,.48-.61,.5-1.34,.37-1.86-.14-.53-.43-.89-.68-1.07-.24-.18-.42-.2-.42-.18-.06,.06,.61,.35,.79,1.32,.08,.46,.02,1.07-.37,1.52-.37,.46-1.11,.61-1.77,.38-.66-.23-1.14-.8-1.15-1.4-.02-.59,.31-1.11,.65-1.42,.74-.65,1.44-.46,1.43-.54Z" style="fill:#455a64;"></path><path d="M54.91,305.8s.26,.06,.73,.1c.47,.04,1.17,.04,2.02-.02,1.7-.12,4.05-.58,6.44-1.65,2.39-1.08,4.3-2.52,5.52-3.71,.61-.6,1.07-1.11,1.36-1.49,.29-.38,.44-.59,.42-.61-.06-.05-.73,.75-1.99,1.87-1.25,1.11-3.15,2.48-5.48,3.54-2.34,1.04-4.62,1.55-6.29,1.74-1.67,.2-2.72,.17-2.72,.25Z" style="fill:#455a64;"></path><path d="M106.98,296.14s.34,.89,1.17,2.17c.82,1.28,2.13,2.95,3.84,4.54,1.71,1.58,3.48,2.76,4.81,3.49,1.34,.73,2.23,1.05,2.25,1,.03-.07-.8-.49-2.08-1.28-1.28-.79-2.98-1.99-4.67-3.55-1.68-1.56-3-3.17-3.88-4.39-.88-1.22-1.37-2.02-1.43-1.98Z" style="fill:#455a64;"></path></g><g><g><path d="M126.15,218.97c2.87,8.38,2.55,7.66,7.92,32.69,.99,4.62-.76,11.84-4.92,14.07-4.16,2.23-11.57-.22-14.04-4.24l-3.99-37.78,15.03-4.74Z" style="fill:#ffbf9d;"></path><path d="M56.9,264.37l.11-19.9-.08-1.95-20.2-4.72s3.97-13.07,7.6-27.11c2.1-8.11,9.09-12.18,10.78-13.06h0l.37-.18h0l19.44-8.23c3.92,4.19,9.65,7.55,15.16,5.94,3.01-.88,6.11-3.1,8-5.46l13.11,4.5h0c3.36,1.23,6.93,3.58,9.06,7.35,2.74,4.85,11.5,27.09,11.65,27.59l-16.23,1.46s2.88,52.64,1.86,62.04c0,0-3.94,2.73-13.89,3.2-20.16,.95-50.18-.48-50.18-.48,.47-3.04,.96-8.11,1.24-10.68l2.19-20.29Z" style="fill:#455a64;"></path><path d="M115.13,210.98c-.08,0,.35,12.56,.96,28.03,.61,15.48,1.18,28.03,1.26,28.03,.08,0-.35-12.55-.96-28.04-.61-15.48-1.18-28.03-1.26-28.02Z" style="fill:#263238;"></path></g><path d="M59.12,214.49c.14,0-.26,11.15-.91,24.88-.65,13.74-1.29,24.86-1.43,24.86-.14,0,.26-11.14,.91-24.88,.65-13.73,1.29-24.86,1.43-24.85Z" style="fill:#263238;"></path><g><path d="M36.64,247.27c.66-4.94,1.2-9.31,1.2-9.31l16.15,3.75-.69,2.6,12.49-12.68,1.98,.17,6.29,6.54s-5.48,11.57-8.67,16.08c-4.15,5.86-10.67,14.8-19.59,14.05-8.25-.69-10.34-12.33-9.16-21.2Z" style="fill:#ffbf9d;"></path><path d="M45.39,250.23c-.1-.1,1.38-1.7,3.55-3.26,2.17-1.57,4.16-2.45,4.22-2.33,.07,.13-1.78,1.21-3.91,2.76-2.14,1.53-3.75,2.95-3.86,2.84Z" style="fill:#ff9a6c;"></path><g><path d="M87.6,215.07l-5.55-2.83-7.2,2.29-3.57,3.29-5.48,13.81-4.39,5.56,7.75,10.1,4.9-8.95s4.16-1.82,5.83-4.45c1.66-2.63,2.42-4.06,2.42-4.06,0,0,2.4-1.15,2.85-2.26,.44-1.11,.43-1.97,.43-1.97l-1.22-1.78s.12-1.65-.37-2.27c-.48-.62-.96-.76-.96-.76,0,0,.36-1.5-.2-2.03-.56-.54-3.32-1.52-3.32-1.52h0l2.42-1.38s5.37,1.66,5.67-.79Z" style="fill:#ffbf9d;"></path><path d="M79.36,220.09c0,.07,.85,.09,1.87,.31,1.02,.21,1.8,.53,1.83,.47,.03-.05-.73-.48-1.78-.7-1.05-.22-1.92-.14-1.92-.08Z" style="fill:#ff9a6c;"></path><path d="M81.02,223.19c0,.07,.73,.07,1.61,.2,.88,.13,1.57,.35,1.59,.28,.02-.06-.65-.38-1.56-.52-.91-.14-1.65-.03-1.64,.03Z" style="fill:#ff9a6c;"></path><path d="M83.37,228.04c.07,0,.11-.32,.1-.71,0-.39-.07-.7-.13-.7-.07,0-.11,.32-.1,.71,0,.39,.07,.7,.13,.7Z" style="fill:#ff9a6c;"></path><path d="M82.31,229.54c.07,0,.02-.67,.51-1.28,.47-.62,1.14-.74,1.12-.81,0-.03-.18-.05-.44,.04-.26,.08-.6,.29-.87,.62-.26,.34-.38,.72-.39,.99-.02,.28,.04,.44,.07,.44Z" style="fill:#ff9a6c;"></path><path d="M77.97,225.11c.06,.03,.3-.59,.97-.95,.66-.38,1.31-.26,1.32-.33,0-.03-.14-.1-.41-.12-.27-.02-.65,.04-1.02,.24-.36,.2-.62,.5-.74,.74-.13,.24-.14,.41-.11,.42Z" style="fill:#ff9a6c;"></path><path d="M75.44,222.04c.06,.03,.28-.55,.89-.92,.6-.39,1.21-.35,1.21-.42,0-.03-.15-.08-.4-.08-.25,0-.61,.09-.94,.3-.33,.21-.56,.5-.66,.73-.11,.23-.12,.39-.1,.4Z" style="fill:#ff9a6c;"></path><path d="M73.75,220.54s.02-.19,.06-.48c.04-.28,.15-.67,.41-1.02,.26-.35,.6-.56,.86-.68,.26-.12,.44-.16,.44-.19,0-.03-.2-.05-.5,.04-.3,.08-.7,.31-.99,.7-.29,.39-.39,.84-.38,1.15,0,.31,.08,.49,.11,.49Z" style="fill:#ff9a6c;"></path><path d="M76.1,216.93c0,.08,1.16,.1,2.56,.32,1.4,.22,2.46,.71,2.49,.64,.03-.05-1.01-.65-2.45-.87-.71-.12-1.37-.14-1.84-.14-.47,0-.76,.02-.76,.06Z" style="fill:#ff9a6c;"></path></g></g></g><g style="opacity:.3;"><path d="M91.9,248.12c.2-1.6,.43-3.28,1.37-4.6,1.62-2.29,4.81-2.78,7.62-2.64,2.8,.14,5.71,.69,8.35-.27l7.87,23.37c-2.92-.71-5.53-2.61-7.11-5.17-.8-1.31-1.39-2.82-2.61-3.76-1.68-1.29-4-1.1-6.12-1.12-2.21-.02-4.42-.35-6.54-.96-.9-.26-1.84-.61-2.4-1.37-.71-.96-.59-2.29-.44-3.48Z"></path></g><g><g><path d="M115.43,213.39l-5.28,38.68c-.34,2.17-1.8,3.52-3.65,4.31l-28.43-.8c-3.4-.1-6.15-2.93-5.79-6.21v-.09l4.65-37.55c.28-2.26,1.45-3.87,2.8-3.87h33.21c1.69,0,2.92,2.73,2.49,5.52Z" style="fill:#263238;"></path><path d="M114.47,225.99c.67-.77,.58-2.02-.05-2.82-.63-.8-1.68-1.19-2.7-1.2-1.02-.01-2.02,.3-2.96,.69-1.16,.48-2.28,1.07-3.33,1.76-.74,.49-1.51,1.12-1.63,2-.13,.88,.85,1.86,1.61,1.4-.99,.45-1.98,1.53-2.12,2.64-.14,1.11,.47,1.7,1.55,1.99-.81,.34-1.31,1.38-.92,2.16,.41,.82,1.57,1.03,2.42,.68,.85-.35,1.47-1.09,2.06-1.81-.59,1.07-.54,2.77-.28,3.96,2.35-.86,4.67-3.48,3.97-5.97,1.14-.9,1.66-2.76,.95-4.03,.95-.32,2-1.8,1.9-2.8" style="fill:#ffbf9d;"></path></g><path d="M114.73,223.72l.19,11.12,2.88,4.34,13.23,11.82s-1.96,16.07-7.93,14.31c-5.97-1.75-7.41-2.9-10.94-9.38-1.89-3.47-3.05-9.12-4.14-12.36-.64-1.9-.08-8.02-.08-8.02l6.8-11.83Z" style="fill:#ffbf9d;"></path><path d="M104.86,232.46s.39-.31,1.01-.81c.61-.49,1.51-1.17,2.67-1.45,.58-.14,1.15-.15,1.64-.04,.5,.11,.91,.33,1.21,.57,.61,.49,.76,.99,.8,.97,.01,0,0-.13-.1-.34-.09-.21-.28-.49-.59-.77-.31-.27-.74-.53-1.28-.66-.53-.14-1.15-.13-1.76,.02-1.23,.3-2.14,1.03-2.73,1.56-.59,.55-.91,.93-.89,.95Z" style="fill:#ff9a6c;"></path><path d="M105.01,227.94s.5-.16,1.23-.55c.37-.19,.81-.41,1.31-.61,.5-.19,1.09-.36,1.7-.48,.61-.12,1.21-.15,1.73-.06,.52,.09,.97,.3,1.3,.53,.67,.47,.82,1.01,.86,.98,.01,0,0-.14-.11-.35-.1-.21-.31-.51-.64-.78-.33-.27-.8-.51-1.36-.62-.56-.11-1.19-.09-1.82,.04-.63,.13-1.21,.3-1.74,.51-.52,.22-.95,.46-1.31,.67-.72,.42-1.16,.68-1.15,.71Z" style="fill:#ff9a6c;"></path><path d="M129.6,257.39c-.11,0,.59-1.58,.16-4.14-.21-1.27-.71-2.74-1.56-4.2-.85-1.47-2.08-2.91-3.49-4.28-1.42-1.37-2.89-2.57-4.19-3.7-1.31-1.13-2.45-2.19-3.34-3.15-.89-.96-1.53-1.81-1.93-2.43-.4-.62-.57-.98-.55-1,.03-.02,.25,.32,.69,.9,.44,.58,1.1,1.39,2.01,2.31,.91,.92,2.06,1.95,3.38,3.06,1.31,1.11,2.79,2.3,4.23,3.69,1.44,1.39,2.68,2.87,3.54,4.4,.86,1.52,1.34,3.05,1.52,4.36,.17,1.31,.07,2.39-.1,3.11-.09,.36-.17,.63-.24,.81-.07,.18-.11,.27-.13,.27Z" style="fill:#ff9a6c;"></path></g></g></g></svg>
